<?xml version="1.0" encoding="utf-8"?>
<!-- Generator: Adobe Illustrator 26.4.1, SVG Export Plug-In . SVG Version: 6.00 Build 0)  -->
<svg version="1.1" id="Capa_1" xmlns="http://www.w3.org/2000/svg" xmlns:xlink="http://www.w3.org/1999/xlink" x="0px" y="0px"
	 viewBox="0 0 330 330" style="enable-background:new 0 0 330 330;" xml:space="preserve">
<g transform="translate(0.000000,197.000000) scale(0.100000,-0.100000)">
	<path d="M594.4,474.5c-2.3-0.6-13.9-2.6-25.7-4.3c-28-4.6-65.6-17.6-88.5-30.4c-90.5-50.6-106.1-150.7-33.5-215.7
		c19.7-17.6,65.1-40.5,97.2-48.9c73.2-18.8,161.9-12.4,223.5,16.2c26.9,12.1,55.2,32.4,67.1,47.4l9.3,11.6H800h-43.4l-18.2-9.8
		c-33.5-18.2-56.1-23.4-103.5-23.4c-48.3,0-63.6,2.9-96.9,18.8c-50,24-72.6,65.1-59.3,108.4c8.7,29.5,40.2,56.1,81.8,69.7
		c19.1,6.1,31.2,7.8,61.6,9.3c54.7,2,81.8-4.9,133.9-34.1c8.7-4.6,15.3-5.5,48.6-5.2c21.1,0.3,38.5,1.7,38.5,3.2
		c0,6.1-40.8,42.5-59,52.6c-42.8,23.7-97.5,36.4-155,35.9C612.3,475.4,596.7,474.8,594.4,474.5z"/>
	<path d="M1064.3,473c-77.8-12.1-139.1-49.4-163.7-99.8c-9.5-19.4-9.8-21.4-9.8-53.5c0-31.8,0.3-34.1,9.5-52.9
		c47.7-97.7,225.3-134.2,350.5-72.3c76.9,38.2,108.2,112.2,75.8,179.9c-10.7,22.8-42.8,54.1-69.1,67.7
		c-43.4,22.6-78.9,31.2-135.3,32.4C1099.9,475.1,1073.9,474.5,1064.3,473z M1180,415.2c72-22.8,105.5-78.9,78.7-132.2
		c-35-68.8-173.2-90.2-252.4-39c-31.2,20.2-45.7,44-45.7,75.8c0,48,38.5,85,103.8,100.1C1090.9,425.9,1154.3,423.6,1180,415.2z"/>
	<path d="M1512.5,473c-64.8-10.1-110.5-40.2-115.7-76.6c-2.9-18.2,0.6-29.5,13.3-43.4c19.1-20.5,50.9-31.8,131.3-46.6
		c52.9-9.5,71.7-14.5,88.5-23.1c15.3-7.5,20-13.9,20-26.6c0-53.8-169.7-59.9-195.2-6.9l-5.8,11.9l-32.4,0.3h-32.7v-9.3
		c0-33,40.5-66.8,97.7-81.3c35.6-9,106.7-8.7,140.8,0.6c78.9,21.1,116,69.7,90.8,119.1c-14.7,29.2-48,42.2-166.6,64.8
		c-40.2,7.5-65.9,15.6-76.3,24.3c-4.9,3.8-5.8,6.9-4.3,12.7c4.6,18.8,32.1,30.7,75.5,33c48,2.6,89.1-9.5,96.9-28l3.5-8.7h34.4
		c33.8,0,34.4,0,34.4,6.7c-0.3,19.7-23.1,46.3-50.6,58.7C1623.3,471.3,1556.5,479.7,1512.5,473z"/>
	<path d="M2632.5,471.6c-39-6.1-82.4-22.6-110.8-41.6c-18.5-12.7-41.6-38.7-50.9-57.5c-8.1-16.8-9.8-23.1-10.7-46.3
		c-1.2-22.6-0.3-29.5,5.2-44.8c20.2-55.5,76.1-94.6,158.2-111c35-6.9,103.2-6.7,136.8,0.3c52.3,11.3,89.9,29.2,120,57.3
		c10.4,9.5,18.8,18.5,18.8,20c0,1.4-19.7,2.6-43.7,2.6c-39.6,0-44.5-0.6-52.1-6.1c-23.7-16.8-70.3-28.6-112.8-28.6
		c-69.1,0-127.5,26.6-148.6,68c-7.2,14.2-8.7,20.2-8.7,37.3c0,17.4,1.4,22.8,8.7,36.1c15,27.5,40.5,45.4,82.4,58.7
		c19.1,5.8,27.2,6.7,68,6.4c42.5,0,48.3-0.6,70-7.8c13-4.3,30.7-12.7,39-18.8l15.3-10.7l39.6-0.6c22.6-0.3,40.5,0.9,41.6,2.3
		c2.6,4.3-15,24.3-33.8,38.7C2808.3,467,2719,484.9,2632.5,471.6z"/>
	<path d="M1792.7,466.4c-0.9-2.3-1.2-69.7-0.6-149.8l0.9-145.7l32.7-0.9l32.4-0.9v112.2v112.2l63-111.9l62.8-112.2h24.6h24.6l6.1,11
		c3.2,5.8,31.2,55.5,62.2,110.5l56.1,99.5l0.9-110.5l0.6-110.5h31.8h31.8v150.4v150.4h-45.7h-46l-60.4-109.6
		c-45.1-82.1-61.3-109-63.6-106.4c-1.7,2-21.4,37.3-43.7,78.7c-22.6,41.4-48.3,89.1-57.5,106.4l-16.8,30.9h-47.4
		C1804.6,470.1,1793.9,469.3,1792.7,466.4z"/>
	<path d="M2323.7,319.8V169.1l31.2,0.9l30.9,0.9v148.9v148.9l-30.9,0.9l-31.2,0.9V319.8z"/>
</g>
</svg>
