<?xml version="1.0" encoding="UTF-8"?>
<svg version="1.1" xmlns="http://www.w3.org/2000/svg" width="1311" height="507">
<path d="M0 0 C432.63 0 865.26 0 1311 0 C1311 167.31 1311 334.62 1311 507 C878.37 507 445.74 507 0 507 C0 339.69 0 172.38 0 0 Z " fill="none" transform="translate(0,0)"/>
<path d="M0 0 C22.15295693 19.65819317 36.58924954 46.65259796 38.82519531 76.59960938 C39.22894026 94.93813009 31.58959843 109.0069451 19.58691406 122.40820312 C18.68714844 123.29121094 17.78738281 124.17421875 16.86035156 125.08398438 C14.65834918 127.33517237 13.92728627 128.34485327 13.58691406 131.40820312 C18.01449388 130.02458443 21.21426622 127.5657805 24.81738281 124.74804688 C27.67895229 122.58133975 29.48424986 122.24976851 33.02441406 122.22070312 C33.806875 122.20652344 34.58933594 122.19234375 35.39550781 122.17773438 C37.58691406 122.40820312 37.58691406 122.40820312 40.58691406 124.40820312 C41.9907824 132.98739852 37.58606945 139.18503347 32.75878906 145.98242188 C19.83757519 162.71171707 19.83757519 162.71171707 11.58691406 165.40820312 C12.24691406 167.38820312 12.90691406 169.36820313 13.58691406 171.40820312 C19.74134945 171.86712241 24.05417581 170.38379619 29.64941406 167.90820312 C30.48432373 167.54509033 31.3192334 167.18197754 32.17944336 166.80786133 C42.55744751 162.20502707 52.10781464 156.78124537 61.14941406 149.90820312 C61.72151611 149.48176514 62.29361816 149.05532715 62.88305664 148.6159668 C70.42582797 142.64912988 73.87087148 134.00329321 77.83691406 125.47070312 C90.51958598 98.65238059 105.54276753 73.26117896 124.58691406 50.40820312 C125.32296875 49.4878125 126.05902344 48.56742187 126.81738281 47.61914062 C138.9811594 32.72087162 152.69312143 18.33803187 168.58691406 7.40820312 C169.61429688 6.67214844 170.64167969 5.93609375 171.70019531 5.17773438 C175.24287651 3.00610436 177.50200771 3.00772211 181.58691406 3.40820312 C182.58691406 4.40820312 182.58691406 4.40820312 183.02441406 7.22070312 C182.7129854 18.25417575 173.11229007 28.47290465 166.87207031 36.90820312 C164.03005204 40.76167671 161.37367777 44.70129725 158.77441406 48.72070312 C154.08175014 55.91814243 148.86898715 62.68662174 143.62646484 69.48925781 C139.33929753 75.06571499 135.17616079 80.70349386 131.14941406 86.47070312 C122.01610675 99.55063258 112.48427056 112.2532585 101.72753906 124.05273438 C99.31057797 126.71227368 96.95733812 129.41964292 94.62597656 132.15429688 C92.96141851 133.9942394 91.26290837 135.71633156 89.48535156 137.44335938 C82.38813744 143.97599291 82.38813744 143.97599291 79.52441406 152.78320312 C80.15604457 157.45574687 82.12717219 161.2033896 85.58691406 164.40820312 C90.34975324 167.36136228 95.16365409 167.03670518 100.58691406 166.40820312 C113.9198349 163.16204789 123.05447725 156.80550621 133.28100586 147.9597168 C148.29571261 134.99514576 148.29571261 134.99514576 154.08691406 134.65820312 C157.58691406 135.40820312 157.58691406 135.40820312 159.29003906 137.09960938 C160.90503736 139.97450093 160.92272996 141.81324506 160.83691406 145.09570312 C160.81113281 146.14628906 160.78535156 147.196875 160.75878906 148.27929688 C160.5348192 152.35656647 160.12657791 156.36072426 159.58691406 160.40820312 C163.4499798 162.98358029 166.130757 163.02859625 170.58691406 162.40820312 C181.59497608 159.83878581 190.35480064 154.92456714 199.66552734 148.69140625 C202.04916869 147.09948517 204.45877617 145.55077426 206.87304688 144.00585938 C208.01891798 143.27197953 209.16279508 142.53497722 210.3046875 141.79492188 C213.31687316 139.84456139 216.34742883 137.93580208 219.41894531 136.08007812 C236.92390194 125.4664282 253.82086085 112.73615597 268.04394531 97.95117188 C269.66989376 96.32522342 271.3822922 94.87895235 273.14941406 93.40820312 C279.11369274 88.25671483 284.29335723 82.31349962 289.62353516 76.52441406 C291.6433137 74.34741327 293.6836194 72.19163924 295.73144531 70.04101562 C302.18425866 63.2608474 308.48395757 56.49333165 314.30957031 49.15820312 C318.19894199 44.46160337 322.41605135 40.06873625 326.58691406 35.62304688 C328.84335046 33.21585718 331.05330476 30.77909513 333.21191406 28.28320312 C354.04284143 4.20388857 354.04284143 4.20388857 361.58691406 0.40820312 C362.90691406 0.40820312 364.22691406 0.40820312 365.58691406 0.40820312 C367.06129345 3.3569619 366.94780916 5.09999809 366.58691406 8.40820312 C363.09320942 17.73069051 355.35417654 24.18150562 347.98535156 30.49804688 C342.95099442 34.88305778 338.24947699 39.59545786 333.54125977 44.32348633 C332.02698826 45.84311981 330.50743976 47.3573283 328.98730469 48.87109375 C324.17707361 53.67803593 319.4715997 58.53336418 315.04711914 63.70288086 C312.99599018 66.09832239 310.85165278 68.40445398 308.71191406 70.72070312 C304.61614252 75.21184326 300.72769826 79.82414406 296.91503906 84.55664062 C294.90125544 87.02318768 292.83921918 89.4373406 290.75244141 91.84204102 C283.75672908 99.93974844 277.46039554 108.5168191 271.19580078 117.18652344 C269.79584968 119.11968808 268.38422198 121.0432576 266.96582031 122.96289062 C250.58777881 143.25878794 250.58777881 143.25878794 240.58691406 166.40820312 C252.82759398 166.9404066 263.9836203 165.905238 275.8984375 163.04541016 C277.76699855 162.60253472 279.64057536 162.18051257 281.51757812 161.77490234 C284.50909712 161.12804814 287.48488814 160.43100585 290.46191406 159.72070312 C291.38327148 159.52589355 292.30462891 159.33108398 293.25390625 159.13037109 C298.40231077 157.81992011 300.9469693 156.53413391 303.82128906 151.97460938 C304.27938965 151.18175537 304.73749023 150.38890137 305.20947266 149.57202148 C308.4606607 144.46474044 314.36842953 142.15273943 319.58691406 139.40820312 C320.30105469 139.0240625 321.01519531 138.63992187 321.75097656 138.24414062 C329.45441981 134.7366154 338.68143427 135.46712951 346.52441406 138.09570312 C349.79178356 139.32286045 351.72170156 140.52835221 354.35644531 142.87695312 C357.94912394 145.9930578 361.82418834 146.96892912 366.33691406 148.22070312 C374.16122381 150.59420112 379.60037271 153.75361149 385.58691406 159.40820312 C389.44469892 162.86752324 389.44469892 162.86752324 394.52441406 163.72070312 C399.89322394 162.90371032 404.07711802 159.80139834 408.36206055 156.64770508 C412.79051167 153.49562617 416.1068479 152.4811211 421.58691406 152.40820312 C423.83691406 153.48242187 423.83691406 153.48242187 425.58691406 155.09570312 C429.37262853 158.2836732 433.04201435 160.46414198 437.58691406 162.40820312 C438.204375 162.67375 438.82183594 162.93929687 439.45800781 163.21289062 C455.17040636 169.15481132 473.08637298 169.20147271 489.62109375 170.15869141 C492.65242586 170.41371457 495.58968479 170.89483257 498.58691406 171.40820312 C500.31661179 171.59516238 502.04861097 171.76196705 503.78222656 171.90820312 C504.74644531 171.99070313 505.71066406 172.07320312 506.70410156 172.15820312 C507.69667969 172.24070313 508.68925781 172.32320312 509.71191406 172.40820312 C510.68128906 172.49070313 511.65066406 172.57320312 512.64941406 172.65820312 C514.6312027 172.82641861 516.61322535 172.99189719 518.59545898 173.15478516 C520.5575982 173.32100571 522.51880809 173.49867827 524.47875977 173.68896484 C532.50304827 174.44256422 540.46800458 174.55792868 548.52441406 174.53320312 C549.81154297 174.53707031 551.09867188 174.5409375 552.42480469 174.54492188 C553.66294922 174.54363281 554.90109375 174.54234375 556.17675781 174.54101562 C557.28913818 174.5398877 558.40151855 174.53875977 559.54760742 174.53759766 C562.3514737 174.41822669 564.8502292 173.9884089 567.58691406 173.40820312 C569.91993392 173.3699569 572.25402915 173.36246028 574.58691406 173.40820312 C574.91691406 174.72820312 575.24691406 176.04820312 575.58691406 177.40820312 C570.66114261 181.77102927 566.92894893 182.52519016 560.48168945 182.5534668 C558.98238388 182.56288551 558.98238388 182.56288551 557.45278931 182.57249451 C556.37427704 182.57370804 555.29576477 182.57492157 554.18457031 182.57617188 C552.48486588 182.58252403 552.48486588 182.58252403 550.75082397 182.58900452 C547.05031684 182.59894018 543.34993227 182.59891396 539.64941406 182.59570312 C537.75571579 182.59479675 537.75571579 182.59479675 535.82376099 182.59387207 C448.86016947 182.48076126 448.86016947 182.48076126 419.45800781 170.78710938 C415.13526774 169.14078016 415.13526774 169.14078016 410.58691406 169.40820312 C407.7584395 171.0565344 405.2208777 173.01327904 402.64941406 175.03320312 C401.95912109 175.55527344 401.26882813 176.07734375 400.55761719 176.61523438 C397.24578349 179.15796925 394.18719191 181.74275996 391.30566406 184.76757812 C388.58691406 187.40820312 388.58691406 187.40820312 385.02441406 188.03320312 C380.99259128 187.30014444 379.4044082 186.35753841 376.58691406 183.40820312 C376.49316406 180.38476563 376.49316406 180.38476563 377.08691406 177.03320312 C377.70608138 172.61637542 377.70608138 172.61637542 376.80566406 168.36523438 C373.04058468 163.6709527 367.37934946 160.68836937 361.58691406 159.40820312 C361.62171875 160.13265625 361.65652344 160.85710937 361.69238281 161.60351562 C361.974135 171.66609381 361.974135 171.66609381 358.58691406 176.40820312 C350.19756495 185.20678878 336.0001003 186.35573184 324.39941406 186.78320312 C316.04638904 186.61941832 309.38196053 183.34122688 303.58691406 177.40820312 C302.3178811 175.10087047 301.46852235 172.90609326 300.58691406 170.40820312 C294.8458139 170.12610391 290.14699593 171.13635797 284.64941406 172.72070312 C271.0566414 176.41864041 258.56165731 178.81454466 244.41552734 178.38598633 C243.55685059 178.36366943 242.69817383 178.34135254 241.81347656 178.31835938 C241.04600098 178.2887915 240.27852539 178.25922363 239.48779297 178.22875977 C237.34261273 178.22749016 237.34261273 178.22749016 235.58691406 180.40820312 C235.27202492 182.89107 235.07232441 185.28938223 234.94628906 187.78320312 C234.84891464 189.32868789 234.75031184 190.87409563 234.65063477 192.41943359 C234.60041168 193.23329529 234.5501886 194.04715698 234.4984436 194.88568115 C231.18961085 246.55798375 210.89319174 291.70787262 179.58691406 332.40820312 C178.84699219 333.37757813 178.10707031 334.34695313 177.34472656 335.34570312 C152.02564453 367.44838826 152.02564453 367.44838826 135.58691406 369.84570312 C131.35574387 369.22865747 130.19361466 367.76947495 127.58691406 364.40820312 C121.74562111 355.76993928 122.52272437 344.98480914 124.28222656 335.12304688 C129.50046912 309.66813425 143.43708207 285.16300321 158.34179688 264.18212891 C165.48209229 254.00930802 172.18246206 243.52696757 178.83691406 233.03320312 C186.89972127 220.33189248 195.14636896 208.129567 204.58691406 196.40820312 C207.73536199 192.49763718 207.73536199 192.49763718 210.86035156 188.56835938 C211.93954244 187.21814998 213.04532354 185.88829969 214.18847656 184.59179688 C217.63370502 180.44404976 218.10785782 177.27368183 217.82910156 171.91992188 C217.48954178 168.39835836 217.10551321 164.90874735 216.58691406 161.40820312 C220.03004431 158.76846994 221.994971 158.42634645 226.14941406 158.72070312 C229.12775585 158.52511053 230.91867187 158.04417348 233.10351562 155.96484375 C236.47363719 152.01220589 239.37785912 147.73321859 242.24755859 143.40966797 C243.98877735 140.80767903 245.8553454 138.30365912 247.71191406 135.78320312 C250.0249012 132.45160121 251.64074479 129.40314006 252.58691406 125.40820312 C245.46295847 128.6630252 239.4233226 132.52002513 233.27441406 137.34570312 C183.40093953 175.53544926 183.40093953 175.53544926 159.99316406 175.01757812 C155.10655635 174.14336849 151.84006705 171.88565687 147.98925781 168.84179688 C145.6930592 167.18681516 145.6930592 167.18681516 143.07128906 167.44335938 C140.04257232 168.61960629 138.2497788 170.17356093 135.89941406 172.40820312 C131.25181893 176.78241031 129.12317693 177.62025664 122.82519531 177.58007812 C120.58691406 177.40820312 120.58691406 177.40820312 117.96191406 176.34570312 C114.55760791 175.00189807 112.11938109 175.6512459 108.58691406 176.40820312 C107.44996094 176.91287109 107.44996094 176.91287109 106.29003906 177.42773438 C100.27532415 179.6093723 92.96817739 179.45874014 86.88378906 177.56835938 C81.40222574 174.79961055 77.50960414 170.80151252 74.58691406 165.40820312 C73.71191406 161.90820313 73.71191406 161.90820313 73.58691406 159.40820312 C65.42286354 158.3299323 61.12589826 161.87792649 54.58691406 166.40820312 C40.93165701 175.2234117 25.54708777 184.87474061 8.58691406 182.40820312 C5.56408428 181.26453377 2.79346391 179.95912112 -0.03808594 178.40429688 C-2.85508578 177.2228249 -3.57705108 177.49043073 -6.41308594 178.40820312 C-7.80387955 179.0151533 -9.17851298 179.65999866 -10.53808594 180.33398438 C-11.32127197 180.7169165 -12.10445801 181.09984863 -12.91137695 181.49438477 C-13.73694092 181.89906982 -14.56250488 182.30375488 -15.41308594 182.72070312 C-37.76787265 193.43973761 -37.76787265 193.43973761 -47.41308594 191.40820312 C-49.17871094 190.04492188 -49.17871094 190.04492188 -50.41308594 188.40820312 C-50.7520577 183.66259849 -48.61872332 181.1568411 -45.66308594 177.72070312 C-42.8455079 174.60738693 -40.17963182 172.30040153 -36.41308594 170.40820312 C-32.60058594 170.22070312 -32.60058594 170.22070312 -29.41308594 170.40820312 C-29.08308594 171.72820312 -28.75308594 173.04820312 -28.41308594 174.40820312 C-23.06633719 173.88857025 -19.14667148 172.61419142 -14.28808594 170.15820312 C-13.10988281 169.57554687 -11.93167969 168.99289063 -10.71777344 168.39257812 C-4.24645163 164.50672532 -1.46954221 160.18371247 1.27441406 153.40820312 C1.56896484 152.70953125 1.86351562 152.01085937 2.16699219 151.29101562 C3.68268574 147.68059951 5.14371914 144.04818243 6.58691406 140.40820312 C0.73483301 139.94184191 -2.90004271 141.2958944 -7.78808594 144.28320312 C-8.47797607 144.68595459 -9.16786621 145.08870605 -9.87866211 145.50366211 C-13.4686745 147.60759331 -17.01760071 149.77712945 -20.56542969 151.95117188 C-48.11976008 168.73030201 -80.77833433 178.73777141 -111.41308594 188.40820312 C-112.6209375 188.79105469 -113.82878906 189.17390625 -115.07324219 189.56835938 C-118.50154155 190.59726575 -121.94296697 191.53382976 -125.41308594 192.40820312 C-126.30092773 192.63217773 -127.18876953 192.85615234 -128.10351562 193.08691406 C-152.03056723 199.03579951 -175.66566259 203.69599711 -200.41308594 202.40820312 C-201.59330322 202.35019531 -201.59330322 202.35019531 -202.79736328 202.29101562 C-212.42192376 201.72351499 -221.21966937 200.19932748 -227.94042969 192.70507812 C-229.81517026 189.90243566 -230.411648 187.42344524 -230.72558594 184.09570312 C-226.29666984 171.65255789 -212.77878809 163.76091907 -201.41308594 158.34570312 C-168.9001249 143.40820312 -168.9001249 143.40820312 -154.41308594 143.40820312 C-151.11572756 136.91561694 -148.59526964 130.61094655 -147.11352539 123.4465332 C-145.03767226 113.47681258 -141.3930391 105.2515643 -136.41308594 96.40820312 C-135.77161621 95.25868164 -135.77161621 95.25868164 -135.1171875 94.0859375 C-124.94133085 75.93838088 -113.6261665 58.63282127 -101.16308594 41.97070312 C-100.66768311 41.30828613 -100.17228027 40.64586914 -99.66186523 39.96337891 C-98.25840817 38.10138526 -96.84036996 36.25197827 -95.41308594 34.40820312 C-94.74273315 33.52986816 -94.74273315 33.52986816 -94.05883789 32.63378906 C-91.75613276 29.71827074 -90.79230719 28.50837478 -87.10058594 27.53320312 C-86.21371094 27.49195313 -85.32683594 27.45070312 -84.41308594 27.40820312 C-81.34231556 31.83011248 -81.34231556 31.83011248 -81.65209961 34.3605957 C-82.50896737 36.66619401 -83.54342054 38.06309885 -85.15136719 39.91992188 C-85.71782959 40.58556152 -86.28429199 41.25120117 -86.86791992 41.93701172 C-87.48094971 42.64937988 -88.09397949 43.36174805 -88.72558594 44.09570312 C-102.6113558 60.68369294 -113.20616594 78.39968585 -123.41308594 97.40820312 C-123.8573291 98.23288086 -124.30157227 99.05755859 -124.75927734 99.90722656 C-126.44164599 103.03392585 -128.11174833 106.1662887 -129.76855469 109.30664062 C-131.85745952 113.24628537 -134.01481709 117.14650313 -136.18652344 121.04101562 C-138.78966836 126.06491951 -139.73691767 129.6871759 -139.41308594 135.40820312 C-139.08308594 136.06820312 -138.75308594 136.72820312 -138.41308594 137.40820312 C-134.02677485 136.91892148 -129.72233025 136.30536675 -125.39256287 135.44680786 C-111.73684249 132.76415563 -98.77504259 131.89138429 -84.88574219 132.08789062 C-82.83028822 132.10048629 -80.77482021 132.11094799 -78.71934509 132.11941528 C-73.38774931 132.14562469 -68.0566401 132.19432796 -62.72528076 132.25012207 C-54.14421365 132.33747512 -45.56300299 132.39599614 -36.98162651 132.44220352 C-34.0080016 132.46248308 -31.03476973 132.4965581 -28.06129456 132.53219604 C-26.23593481 132.54585339 -24.41057169 132.55907083 -22.58520508 132.57177734 C-21.36409531 132.59198944 -21.36409531 132.59198944 -20.11831665 132.61260986 C-8.78219771 132.65731363 1.35113454 128.66940483 9.71191406 120.90820312 C24.94324667 104.51728346 28.29392321 86.84085349 27.70996094 65.06689453 C26.61716939 41.45479154 8.01638877 21.06421407 -8.28808594 5.65820312 C-22.93527838 -7.15518868 -42.39367512 -15.69644928 -61.77246094 -17.71679688 C-62.54640701 -17.7992717 -63.32035309 -17.88174652 -64.11775208 -17.96672058 C-72.77483429 -18.82112508 -81.4076971 -18.94505739 -90.10058594 -18.90429688 C-90.93736877 -18.90214172 -91.77415161 -18.89998657 -92.6362915 -18.89776611 C-140.40055115 -19.98922413 -140.40055115 -19.98922413 -182.41308594 -2.59179688 C-182.04167773 1.12228518 -181.56448942 4.69660676 -180.78808594 8.34570312 C-180.66433594 9.02632812 -180.54058594 9.70695312 -180.41308594 10.40820312 C-181.41308594 11.40820312 -181.41308594 11.40820312 -184.60058594 11.53320312 C-189.48649687 10.09145891 -190.77622129 8.09781365 -193.30761719 3.82226562 C-194.87007407 0.41025731 -195.12131946 -1.90898254 -194.41308594 -5.59179688 C-190.15343598 -13.3702881 -180.43466774 -16.30314112 -172.45263672 -18.78271484 C-118.8449232 -34.0526445 -44.93540876 -38.54850606 0 0 Z " fill="#282526" transform="translate(733.4130859375,52.591796875)"/>
<path d="M0 0 C3.66027386 2.13515975 5.39599724 4.14209682 7 8 C10.89804272 30.86351978 -7.76545663 55.19399266 -19.68554688 73.03125 C-20.94036414 74.91067912 -22.18289745 76.79760298 -23.421875 78.6875 C-29.18531273 87.44778365 -35.18833161 96.03542622 -41.21875 104.61328125 C-45.20881294 110.28991953 -49.16737644 115.98822033 -53.125 121.6875 C-57.72572938 128.30904916 -62.34089282 134.91938968 -67 141.5 C-73.70002132 150.96483735 -80.31160727 160.49087644 -86.92675781 170.01513672 C-95.30968609 182.0841053 -103.69743527 194.14964471 -112.125 206.1875 C-112.68985107 206.99533936 -113.25470215 207.80317871 -113.83666992 208.63549805 C-116.7901373 212.85672936 -119.75566991 217.0688335 -122.73828125 221.26953125 C-134.35574116 235.52178197 -134.35574116 235.52178197 -140 252 C-133.53325762 252.50719548 -128.50363658 251.08736045 -122.3671875 249.08203125 C-115.43691445 246.85501775 -108.43627535 245.20082185 -101.25 244.0625 C-91.20582816 242.24676736 -86.37696785 237.78403161 -80 230 C-78.85940499 228.68294522 -77.71374755 227.37025355 -76.5625 226.0625 C-75.98886719 225.40765625 -75.41523438 224.7528125 -74.82421875 224.078125 C-74.22222656 223.39234375 -73.62023437 222.7065625 -73 222 C-72.34644531 221.25234375 -71.69289062 220.5046875 -71.01953125 219.734375 C-68.71020807 217.12639619 -66.36650686 214.55625703 -64 212 C-63.25242432 211.19127441 -63.25242432 211.19127441 -62.48974609 210.36621094 C-47.20552331 193.98793017 -47.20552331 193.98793017 -35.5625 193.5 C-32.82163143 193.53519574 -31.47719304 193.65748144 -29.2421875 195.26171875 C-26.91073933 198.52427987 -27.41396651 202.17432071 -28 206 C-30.24953306 210.32602511 -33.46662816 213.79236266 -36.73046875 217.38671875 C-38.21773332 219.08959093 -38.21773332 219.08959093 -39 222 C-31.30969589 220.58212952 -25.01800214 217.14862193 -18.1875 213.4375 C-17.07568359 212.85419922 -15.96386719 212.27089844 -14.81835938 211.66992188 C-7.12796101 207.52547665 -0.59579884 202.70519237 6 197 C15.44103867 189.25594212 23.97112102 183.03707081 36.6328125 183.62890625 C39 184 39 184 41.75 185.4375 C43.70325187 189.44166633 43.24322208 192.79049367 42 197 C40.59993732 199.82893323 39.51424402 200.86835833 37 203 C33.4956772 203.41576711 31.17878694 203.58939347 28 202 C28 200.02 28 198.04 28 196 C15.34830892 199.49880837 6.93124735 209.12307557 -0.57421875 219.39453125 C-2.18617326 222.3402125 -2.76427432 224.65824188 -3 228 C-1.62716577 230.54002013 -1.62716577 230.54002013 1 232 C14.4655165 233.05325941 28.78378174 222.96687299 38.8203125 214.66796875 C41.2534591 212.48408946 43.6311011 210.25314119 46 208 C48.64619704 205.64300482 51.32375936 203.32277489 54 201 C54.58394531 200.48695313 55.16789062 199.97390625 55.76953125 199.4453125 C68.91389016 187.99221422 68.91389016 187.99221422 77.79907227 187.86303711 C88.49130485 187.63071926 97.22274655 185.17651714 107 181 C107.7317041 180.69642578 108.4634082 180.39285156 109.21728516 180.08007812 C119.04289215 175.95876401 127.1455386 171.32087028 135 164 C136.29164755 162.81508333 137.58331577 161.63018919 138.875 160.4453125 C145.68654733 154.15237434 152.33415406 147.72129813 158.84765625 141.12109375 C161.41566706 138.59036803 164.11855909 136.2615959 166.859375 133.921875 C170.52818135 130.62798317 173.94176481 127.07550258 177.38671875 123.55078125 C179.84035729 121.15582465 182.17237444 118.94169743 185 117 C188.8125 117.25 188.8125 117.25 192 118 C192.51188833 120.92507617 192.5512016 123.09803374 190.96875 125.6875 C185.29999211 132.39745832 178.47804705 138.19622869 172.02148438 144.13134766 C170.02774563 145.97435204 168.050395 147.83327725 166.078125 149.69921875 C159.66516341 155.75784613 153.24596659 161.62332853 146.26953125 167.03515625 C143.7977959 169.17505794 141.87018675 171.31854502 140 174 C139.63779011 180.15756807 142.73192197 183.89599823 146.30859375 188.5703125 C150.61757861 194.76012447 150.69445084 200.66870883 150 208 C148.22855171 216.50719481 144.7220398 222.57822358 139 229 C138.29488281 229.84691406 137.58976562 230.69382813 136.86328125 231.56640625 C130.70699835 238.77559618 124.03936303 245.50497024 114.1875 246.3125 C109.75247102 246.22298565 107.33562087 245.03238261 104 242 C99.70178547 236.68730005 99.17163653 230.59255412 99.34375 223.9375 C100.71448052 215.71311691 104.87674193 208.17338995 109.15820312 201.08154297 C111.22264117 197.65992806 112 196.11302294 112 192 C105.06571344 191.4875354 100.38359832 193.12337717 94.125 196 C92.4413566 196.75280732 90.75651718 197.50294729 89.0703125 198.25 C88.33570801 198.58515625 87.60110352 198.9203125 86.84423828 199.265625 C85 200 85 200 83 200 C82.85304688 200.83402344 82.70609375 201.66804687 82.5546875 202.52734375 C79.83409093 216.17723345 72.73580088 225.76931849 61.34375 233.89453125 C54.75680762 237.97168986 47.97665035 241.51936197 40 240 C37.8046875 238.84375 37.8046875 238.84375 35.5625 237.4375 C31.61159561 235.08976395 29.17595982 234.40478607 24.6484375 235.20703125 C20.49226116 236.45143213 16.52609596 238.15171506 12.52905273 239.82519531 C6.36397706 242.36572707 1.31056536 244.08230021 -5.25 241.9375 C-11.4153659 237.59371948 -13.71444261 232.97696465 -16 226 C-19.60231702 226.55420262 -22.03853142 227.42606566 -25.046875 229.46875 C-33.95972424 235.23734409 -40.41076849 238.81893451 -51.13012695 238.5769043 C-56.4418428 238.59011596 -58.96393581 239.85165377 -62.9375 243.3125 C-63.68902344 244.09238281 -64.44054687 244.87226563 -65.21484375 245.67578125 C-72.13779541 251.45299897 -79.74764571 252.53415484 -88.5 252.5625 C-116.25694674 253.28382464 -144.24344256 259.42378567 -164 280 C-164.84949219 280.8765625 -165.69898438 281.753125 -166.57421875 282.65625 C-172.11647745 288.57263291 -177.12095486 294.85508995 -182.078125 301.2578125 C-185.17390183 305.24684554 -188.36508275 309.15480536 -191.5625 313.0625 C-196.69893209 319.35526631 -201.68928211 325.73780937 -206.61767578 332.1953125 C-215.17701692 343.36992389 -223.88553206 354.42533818 -232.70849609 365.39257812 C-234.54106481 367.67341601 -236.36369602 369.96215123 -238.1875 372.25 C-252.12941381 389.65592114 -266.5519471 406.52312877 -282.1875 422.4375 C-282.84073242 423.11216309 -283.49396484 423.78682617 -284.16699219 424.48193359 C-289.3090925 429.65900537 -294.4443727 434.54120938 -301.875 435.5 C-302.90625 435.335 -303.9375 435.17 -305 435 C-308.78030939 429.32953591 -307.51082544 421.55720264 -306.5703125 415.0078125 C-300.93143464 389.87651736 -285.46989865 367.29252687 -269 348 C-268.12258866 346.93841584 -267.24634217 345.87586814 -266.37109375 344.8125 C-260.63887749 337.91259166 -254.58987231 331.40929357 -248.25 325.0625 C-247.55326172 324.36495605 -246.85652344 323.66741211 -246.13867188 322.94873047 C-241.58206014 318.4407082 -236.87492253 314.16048362 -232 310 C-231.40944824 309.49202881 -230.81889648 308.98405762 -230.21044922 308.46069336 C-214.29585191 294.88387107 -197.03534669 283.75664515 -178.61352539 273.88110352 C-167.90047623 268.07838327 -160.575521 262.27597111 -154 252 C-153.23452394 250.84842561 -152.46612378 249.69879133 -151.6953125 248.55078125 C-148.31670334 243.51791532 -144.9666082 238.46632292 -141.62890625 233.40625 C-134.61654134 222.79861764 -127.3268611 212.3921383 -120 202 C-119.47083984 201.24895996 -118.94167969 200.49791992 -118.39648438 199.72412109 C-115.42374972 195.50582195 -112.44681757 191.29050514 -109.46777344 187.07666016 C-106.97679016 183.55232487 -104.48851935 180.02607528 -102 176.5 C-99.02473548 172.28423746 -96.04900208 168.06881222 -93.0703125 163.85546875 C-92.08846912 162.4661971 -91.10669871 161.07687388 -90.125 159.6875 C-89.38914673 158.64613892 -89.38914673 158.64613892 -88.63842773 157.58374023 C-85.9453369 153.76863711 -83.26196949 149.94700813 -80.58984375 146.1171875 C-74.89094058 137.94973732 -69.16542984 129.80802769 -63.3125 121.75 C-58.81303324 115.55394656 -54.41193711 109.30199796 -50.09960938 102.97436523 C-47.23715189 98.77911504 -44.32089445 94.62733371 -41.36889648 90.49462891 C-14.27771491 54.15226345 -14.27771491 54.15226345 -4 12 C-5.23053455 10.55314991 -5.23053455 10.55314991 -8.9375 10.6875 C-28.95169359 11.00367999 -46.98488055 31.85322573 -60.67578125 44.46484375 C-65.16780468 48.58835606 -69.68923801 52.6102371 -74.4375 56.4375 C-79.56747127 60.57811967 -84.404648 64.9726732 -89.23828125 69.44921875 C-93.79961242 73.6621597 -98.49022292 77.71432894 -103.21484375 81.7421875 C-104.41421409 82.76544735 -105.61342817 83.78889037 -106.8125 84.8125 C-107.41860107 85.32973633 -108.02470215 85.84697266 -108.64916992 86.37988281 C-112.39051541 89.5848938 -116.0610693 92.85201503 -119.6875 96.1875 C-123.18259889 99.39645044 -126.7428384 102.46065837 -130.4375 105.4375 C-134.97477021 109.09700528 -139.26030973 112.94995021 -143.52368164 116.91821289 C-146.71306313 119.86917437 -149.9835583 122.65985753 -153.375 125.375 C-157.76806489 128.90717609 -161.89917058 132.6389592 -166 136.5 C-170.93519312 141.14661659 -175.99475404 145.51926057 -181.2890625 149.7578125 C-184.28904435 152.2390655 -187.15153651 154.84864307 -190 157.5 C-193.70859535 160.95164054 -197.48506077 164.26522294 -201.4375 167.4375 C-206.85267975 171.79625017 -211.91665562 176.47230936 -216.99609375 181.2109375 C-219.37892822 183.43253871 -221.79286173 185.61038457 -224.25 187.75 C-225.17232422 188.554375 -225.17232422 188.554375 -226.11328125 189.375 C-227.45586272 190.53134346 -228.80856056 191.67598577 -230.16796875 192.8125 C-242.72155955 203.52950695 -252.26948338 217.06514909 -257.796875 232.63671875 C-259 235 -259 235 -260.88671875 236.31640625 C-264.41686622 237.45832086 -267.28884827 237.23562868 -271 237 C-271.99 236.34 -272.98 235.68 -274 235 C-275.00750182 227.29748611 -270.22527626 221.31696871 -265.79833984 215.39160156 C-256.76716267 203.86288764 -246.18446889 193.42578032 -235 184 C-233.92875625 183.07790369 -232.85853985 182.1546132 -231.7890625 181.23046875 C-226.33127857 176.52058388 -220.85261994 171.8502248 -215.25 167.3125 C-210.87348373 163.76137934 -206.6916854 160.04202602 -202.52734375 156.24609375 C-199.93037607 153.93812402 -197.26595987 151.74444137 -194.5625 149.5625 C-190.75912497 146.48663412 -187.09917348 143.31246834 -183.5 140 C-179.12829537 135.98025464 -174.62213114 132.20011805 -170.00390625 128.46875 C-164.5369753 123.97577164 -159.23324209 119.29253937 -153.89648438 114.64648438 C-150.92144811 112.06362591 -147.9305594 109.49943086 -144.9375 106.9375 C-144.36410889 106.44660889 -143.79071777 105.95571777 -143.19995117 105.44995117 C-142.04469482 104.46114797 -140.88934024 103.47245951 -139.73388672 102.48388672 C-136.82105954 99.99104476 -133.91065939 97.49537234 -131 95 C-129.83334482 93.9999866 -128.66667816 92.99998659 -127.5 92 C-126.9225 91.505 -126.345 91.01 -125.75 90.5 C-105.33333333 73 -84.91666667 55.5 -64.5 38 C-63.92233887 37.5047583 -63.34467773 37.0095166 -62.74951172 36.49926758 C-61.58488626 35.50122614 -60.41984822 34.50366595 -59.25439453 33.5065918 C-56.30289605 30.98044906 -53.3594464 28.44586963 -50.4296875 25.89453125 C-18.19794151 -2.12212417 -18.19794151 -2.12212417 0 0 Z " fill="#282526" transform="translate(320,10)"/>
<path d="M0 0 C22.15295693 19.65819317 36.58924954 46.65259796 38.82519531 76.59960938 C39.22894026 94.93813009 31.58959843 109.0069451 19.58691406 122.40820312 C18.68714844 123.29121094 17.78738281 124.17421875 16.86035156 125.08398438 C14.65834918 127.33517237 13.92728627 128.34485327 13.58691406 131.40820312 C18.01449388 130.02458443 21.21426622 127.5657805 24.81738281 124.74804688 C27.67895229 122.58133975 29.48424986 122.24976851 33.02441406 122.22070312 C33.806875 122.20652344 34.58933594 122.19234375 35.39550781 122.17773438 C37.58691406 122.40820312 37.58691406 122.40820312 40.58691406 124.40820312 C41.9907824 132.98739852 37.58606945 139.18503347 32.75878906 145.98242188 C19.83757519 162.71171707 19.83757519 162.71171707 11.58691406 165.40820312 C12.24691406 167.38820312 12.90691406 169.36820313 13.58691406 171.40820312 C19.7426947 171.86722272 24.05233122 170.3816902 29.64941406 167.90820312 C30.47634766 167.55234131 31.30328125 167.19647949 32.15527344 166.82983398 C38.67000092 163.96297659 44.80746486 160.64558348 50.89941406 156.97460938 C53.58691406 155.40820312 53.58691406 155.40820312 56.58691406 154.40820312 C56.91691406 155.39820313 57.24691406 156.38820312 57.58691406 157.40820312 C60.09138922 158.62690241 60.09138922 158.62690241 62.58691406 159.40820312 C59.07184076 163.13968952 55.42913832 166.100493 51.08691406 168.84570312 C50.4781543 169.23258301 49.86939453 169.61946289 49.2421875 170.01806641 C37.13955016 177.54546901 23.20275432 184.53380152 8.58691406 182.40820312 C5.56408428 181.26453377 2.79346391 179.95912112 -0.03808594 178.40429688 C-2.85508578 177.2228249 -3.57705108 177.49043073 -6.41308594 178.40820312 C-7.80387955 179.0151533 -9.17851298 179.65999866 -10.53808594 180.33398438 C-11.32127197 180.7169165 -12.10445801 181.09984863 -12.91137695 181.49438477 C-13.73694092 181.89906982 -14.56250488 182.30375488 -15.41308594 182.72070312 C-37.76787265 193.43973761 -37.76787265 193.43973761 -47.41308594 191.40820312 C-49.17871094 190.04492188 -49.17871094 190.04492188 -50.41308594 188.40820312 C-50.7520577 183.66259849 -48.61872332 181.1568411 -45.66308594 177.72070312 C-42.8455079 174.60738693 -40.17963182 172.30040153 -36.41308594 170.40820312 C-32.60058594 170.22070312 -32.60058594 170.22070312 -29.41308594 170.40820312 C-29.08308594 171.72820312 -28.75308594 173.04820312 -28.41308594 174.40820312 C-23.06633719 173.88857025 -19.14667148 172.61419142 -14.28808594 170.15820312 C-13.10988281 169.57554687 -11.93167969 168.99289063 -10.71777344 168.39257812 C-4.24645163 164.50672532 -1.46954221 160.18371247 1.27441406 153.40820312 C1.56896484 152.70953125 1.86351562 152.01085937 2.16699219 151.29101562 C3.68268574 147.68059951 5.14371914 144.04818243 6.58691406 140.40820312 C0.73483301 139.94184191 -2.90004271 141.2958944 -7.78808594 144.28320312 C-8.47797607 144.68595459 -9.16786621 145.08870605 -9.87866211 145.50366211 C-13.4686745 147.60759331 -17.01760071 149.77712945 -20.56542969 151.95117188 C-48.11976008 168.73030201 -80.77833433 178.73777141 -111.41308594 188.40820312 C-112.6209375 188.79105469 -113.82878906 189.17390625 -115.07324219 189.56835938 C-118.50154155 190.59726575 -121.94296697 191.53382976 -125.41308594 192.40820312 C-126.30092773 192.63217773 -127.18876953 192.85615234 -128.10351562 193.08691406 C-152.03056723 199.03579951 -175.66566259 203.69599711 -200.41308594 202.40820312 C-201.59330322 202.35019531 -201.59330322 202.35019531 -202.79736328 202.29101562 C-212.42192376 201.72351499 -221.21966937 200.19932748 -227.94042969 192.70507812 C-229.81517026 189.90243566 -230.411648 187.42344524 -230.72558594 184.09570312 C-226.29666984 171.65255789 -212.77878809 163.76091907 -201.41308594 158.34570312 C-168.9001249 143.40820312 -168.9001249 143.40820312 -154.41308594 143.40820312 C-151.11572756 136.91561694 -148.59526964 130.61094655 -147.11352539 123.4465332 C-145.03767226 113.47681258 -141.3930391 105.2515643 -136.41308594 96.40820312 C-135.77161621 95.25868164 -135.77161621 95.25868164 -135.1171875 94.0859375 C-124.94133085 75.93838088 -113.6261665 58.63282127 -101.16308594 41.97070312 C-100.66768311 41.30828613 -100.17228027 40.64586914 -99.66186523 39.96337891 C-98.25840817 38.10138526 -96.84036996 36.25197827 -95.41308594 34.40820312 C-94.74273315 33.52986816 -94.74273315 33.52986816 -94.05883789 32.63378906 C-91.75613276 29.71827074 -90.79230719 28.50837478 -87.10058594 27.53320312 C-86.21371094 27.49195313 -85.32683594 27.45070312 -84.41308594 27.40820312 C-81.34231556 31.83011248 -81.34231556 31.83011248 -81.65209961 34.3605957 C-82.50896737 36.66619401 -83.54342054 38.06309885 -85.15136719 39.91992188 C-85.71782959 40.58556152 -86.28429199 41.25120117 -86.86791992 41.93701172 C-87.48094971 42.64937988 -88.09397949 43.36174805 -88.72558594 44.09570312 C-102.6113558 60.68369294 -113.20616594 78.39968585 -123.41308594 97.40820312 C-123.8573291 98.23288086 -124.30157227 99.05755859 -124.75927734 99.90722656 C-126.44164599 103.03392585 -128.11174833 106.1662887 -129.76855469 109.30664062 C-131.85745952 113.24628537 -134.01481709 117.14650313 -136.18652344 121.04101562 C-138.78966836 126.06491951 -139.73691767 129.6871759 -139.41308594 135.40820312 C-139.08308594 136.06820312 -138.75308594 136.72820312 -138.41308594 137.40820312 C-134.02677485 136.91892148 -129.72233025 136.30536675 -125.39256287 135.44680786 C-111.73684249 132.76415563 -98.77504259 131.89138429 -84.88574219 132.08789062 C-82.83028822 132.10048629 -80.77482021 132.11094799 -78.71934509 132.11941528 C-73.38774931 132.14562469 -68.0566401 132.19432796 -62.72528076 132.25012207 C-54.14421365 132.33747512 -45.56300299 132.39599614 -36.98162651 132.44220352 C-34.0080016 132.46248308 -31.03476973 132.4965581 -28.06129456 132.53219604 C-26.23593481 132.54585339 -24.41057169 132.55907083 -22.58520508 132.57177734 C-21.36409531 132.59198944 -21.36409531 132.59198944 -20.11831665 132.61260986 C-8.78219771 132.65731363 1.35113454 128.66940483 9.71191406 120.90820312 C24.94324667 104.51728346 28.29392321 86.84085349 27.70996094 65.06689453 C26.61716939 41.45479154 8.01638877 21.06421407 -8.28808594 5.65820312 C-22.93527838 -7.15518868 -42.39367512 -15.69644928 -61.77246094 -17.71679688 C-62.54640701 -17.7992717 -63.32035309 -17.88174652 -64.11775208 -17.96672058 C-72.77483429 -18.82112508 -81.4076971 -18.94505739 -90.10058594 -18.90429688 C-90.93736877 -18.90214172 -91.77415161 -18.89998657 -92.6362915 -18.89776611 C-140.40055115 -19.98922413 -140.40055115 -19.98922413 -182.41308594 -2.59179688 C-182.04167773 1.12228518 -181.56448942 4.69660676 -180.78808594 8.34570312 C-180.66433594 9.02632812 -180.54058594 9.70695312 -180.41308594 10.40820312 C-181.41308594 11.40820312 -181.41308594 11.40820312 -184.60058594 11.53320312 C-189.48649687 10.09145891 -190.77622129 8.09781365 -193.30761719 3.82226562 C-194.87007407 0.41025731 -195.12131946 -1.90898254 -194.41308594 -5.59179688 C-190.15343598 -13.3702881 -180.43466774 -16.30314112 -172.45263672 -18.78271484 C-118.8449232 -34.0526445 -44.93540876 -38.54850606 0 0 Z " fill="#292526" transform="translate(733.4130859375,52.591796875)"/>
<path d="M0 0 C1.5778125 0.37125 1.5778125 0.37125 3.1875 0.75 C3.69938833 3.67507617 3.7387016 5.84803374 2.15625 8.4375 C-3.51250789 15.14745832 -10.33445295 20.94622869 -16.79101562 26.88134766 C-18.78475437 28.72435204 -20.762105 30.58327725 -22.734375 32.44921875 C-29.14733659 38.50784613 -35.56653341 44.37332853 -42.54296875 49.78515625 C-45.0147041 51.92505794 -46.94231325 54.06854502 -48.8125 56.75 C-49.17470989 62.90756807 -46.08057803 66.64599823 -42.50390625 71.3203125 C-38.19492139 77.51012447 -38.11804916 83.41870883 -38.8125 90.75 C-40.58394829 99.25719481 -44.0904602 105.32822358 -49.8125 111.75 C-50.51761719 112.59691406 -51.22273438 113.44382812 -51.94921875 114.31640625 C-58.10550165 121.52559618 -64.77313697 128.25497024 -74.625 129.0625 C-79.06002898 128.97298565 -81.47687913 127.78238261 -84.8125 124.75 C-89.11071453 119.43730005 -89.64086347 113.34255412 -89.46875 106.6875 C-88.09801948 98.46311691 -83.93575807 90.92338995 -79.65429688 83.83154297 C-77.58985883 80.40992806 -76.8125 78.86302294 -76.8125 74.75 C-83.74678656 74.2375354 -88.42890168 75.87337717 -94.6875 78.75 C-96.3711434 79.50280732 -98.05598282 80.25294729 -99.7421875 81 C-100.47679199 81.33515625 -101.21139648 81.6703125 -101.96826172 82.015625 C-103.8125 82.75 -103.8125 82.75 -105.8125 82.75 C-105.95945312 83.58402344 -106.10640625 84.41804688 -106.2578125 85.27734375 C-108.97840907 98.92723345 -116.07669912 108.51931849 -127.46875 116.64453125 C-134.05569238 120.72168986 -140.83584965 124.26936197 -148.8125 122.75 C-151.0078125 121.59375 -151.0078125 121.59375 -153.25 120.1875 C-157.20090439 117.83976395 -159.63654018 117.15478607 -164.1640625 117.95703125 C-168.32023884 119.20143213 -172.28640404 120.90171506 -176.28344727 122.57519531 C-182.44852294 125.11572707 -187.50193464 126.83230021 -194.0625 124.6875 C-200.2278659 120.34371948 -202.52694261 115.72696465 -204.8125 108.75 C-208.41481702 109.30420262 -210.85103142 110.17606566 -213.859375 112.21875 C-222.77222424 117.98734409 -229.22326849 121.56893451 -239.94262695 121.3269043 C-245.2543428 121.34011596 -247.77643581 122.60165377 -251.75 126.0625 C-252.50152344 126.84238281 -253.25304687 127.62226563 -254.02734375 128.42578125 C-260.94911805 134.20201647 -268.56086209 135.28650036 -277.3125 135.3125 C-290.15034616 135.61873385 -302.53347797 137.4222164 -314.96484375 140.7109375 C-316.8125 140.75 -316.8125 140.75 -318.56640625 139.2890625 C-318.97761719 138.78117188 -319.38882813 138.27328125 -319.8125 137.75 C-318.8125 134.75 -318.8125 134.75 -316.73046875 133.6875 C-307.96618305 130.67830319 -299.22075723 128.26719555 -290.0625 126.8125 C-280.01832816 124.99676736 -275.18946785 120.53403161 -268.8125 112.75 C-267.67190499 111.43294522 -266.52624755 110.12025355 -265.375 108.8125 C-264.51455078 107.83023438 -264.51455078 107.83023438 -263.63671875 106.828125 C-263.03472656 106.14234375 -262.43273437 105.4565625 -261.8125 104.75 C-261.15894531 104.00234375 -260.50539063 103.2546875 -259.83203125 102.484375 C-257.52270807 99.87639619 -255.17900686 97.30625703 -252.8125 94.75 C-252.06492432 93.94127441 -252.06492432 93.94127441 -251.30224609 93.11621094 C-236.01802331 76.73793017 -236.01802331 76.73793017 -224.375 76.25 C-221.63413143 76.28519574 -220.28969304 76.40748144 -218.0546875 78.01171875 C-215.72323933 81.27427987 -216.22646651 84.92432071 -216.8125 88.75 C-219.06203306 93.07602511 -222.27912816 96.54236266 -225.54296875 100.13671875 C-227.03023332 101.83959093 -227.03023332 101.83959093 -227.8125 104.75 C-220.12219589 103.33212952 -213.83050214 99.89862193 -207 96.1875 C-205.88818359 95.60419922 -204.77636719 95.02089844 -203.63085938 94.41992188 C-195.94046101 90.27547665 -189.40829884 85.45519237 -182.8125 79.75 C-173.37146133 72.00594212 -164.84137898 65.78707081 -152.1796875 66.37890625 C-149.8125 66.75 -149.8125 66.75 -147.0625 68.1875 C-145.10924813 72.19166633 -145.56927792 75.54049367 -146.8125 79.75 C-148.21256268 82.57893323 -149.29825598 83.61835833 -151.8125 85.75 C-155.3168228 86.16576711 -157.63371306 86.33939347 -160.8125 84.75 C-160.8125 82.77 -160.8125 80.79 -160.8125 78.75 C-173.46419108 82.24880837 -181.88125265 91.87307557 -189.38671875 102.14453125 C-190.99867326 105.0902125 -191.57677432 107.40824188 -191.8125 110.75 C-190.43966577 113.29002013 -190.43966577 113.29002013 -187.8125 114.75 C-174.3469835 115.80325941 -160.02871826 105.71687299 -149.9921875 97.41796875 C-147.5590409 95.23408946 -145.1813989 93.00314119 -142.8125 90.75 C-140.16630296 88.39300482 -137.48874064 86.07277489 -134.8125 83.75 C-134.22855469 83.23695313 -133.64460937 82.72390625 -133.04296875 82.1953125 C-119.89860984 70.74221422 -119.89860984 70.74221422 -111.01342773 70.61303711 C-100.32119515 70.38071926 -91.58975345 67.92651714 -81.8125 63.75 C-81.0807959 63.44642578 -80.3490918 63.14285156 -79.59521484 62.83007812 C-69.76960785 58.70876401 -61.6669614 54.07087028 -53.8125 46.75 C-52.52085245 45.56508333 -51.22918423 44.38018919 -49.9375 43.1953125 C-43.12595267 36.90237434 -36.47834594 30.47129813 -29.96484375 23.87109375 C-27.39683294 21.34036803 -24.69394091 19.0115959 -21.953125 16.671875 C-18.28431865 13.37798317 -14.87073519 9.82550258 -11.42578125 6.30078125 C-4.65770925 -0.30542356 -4.65770925 -0.30542356 0 0 Z M-317.8125 136.75 C-316.8125 138.75 -316.8125 138.75 -316.8125 138.75 Z " fill="#272425" transform="translate(508.8125,127.25)"/>
<path d="M0 0 C1.54199045 0.00690996 3.08398277 0.01341191 4.62597656 0.01953125 C20.77796836 0.11003783 36.92168276 0.60640585 53.0625 1.1875 C45.61769784 17.12717009 13.30599467 25.57538159 -1.9375 31.1875 C-8.11682565 33.39771919 -14.33515228 35.49213525 -20.5625 37.5625 C-21.30455688 37.80939575 -22.04661377 38.0562915 -22.81115723 38.31066895 C-37.91238139 43.31370828 -53.04125526 48.04519662 -68.625 51.3125 C-69.8227002 51.56402832 -71.02040039 51.81555664 -72.25439453 52.07470703 C-122.85144291 62.45790236 -122.85144291 62.45790236 -138.9375 54.75 C-141.72301042 52.57381998 -141.88933135 51.53844305 -142.375 48 C-141.78461857 42.85524752 -139.73918386 40.44125434 -135.9375 37.1875 C-99.55641352 9.92633357 -44.66251601 -0.41507455 0 0 Z " fill="#F6F5F2" transform="translate(656.9375,190.8125)"/>
<path d="M0 0 C0.99 0 1.98 0 3 0 C10.86662815 15.73325631 0.21583284 45.29090485 -4.8125 60.625 C-9.07107758 73.07330533 -14.66501196 84.38309844 -21.55859375 95.578125 C-25.18058336 101.66385279 -28.61935831 107.79370195 -30.125 114.75 C-34.88245729 132.03727212 -57.58765534 155.1266628 -72.1875 165.125 C-76.12706559 167.34607196 -79.47921489 168 -84 168 C-86.7056312 166.25443148 -86.96593982 165.10218055 -88 162 C-88.72306401 153.30259746 -87.31302168 145.58334751 -84.9375 137.25 C-84.62095459 136.11546387 -84.30440918 134.98092773 -83.97827148 133.81201172 C-79.9279645 119.72669064 -74.50715772 107.9957044 -66 96 C-64.29645628 93.48980235 -62.61708794 90.96376678 -60.9375 88.4375 C-60.55037842 87.86056396 -60.16325684 87.28362793 -59.7644043 86.68920898 C-57.34962261 83.07983564 -54.99927131 79.43448335 -52.67578125 75.765625 C-48.94903941 69.89249722 -45.11398427 64.0959998 -41.25 58.3125 C-40.55334229 57.26739258 -39.85668457 56.22228516 -39.13891602 55.14550781 C-34.68969636 48.48474769 -30.16924418 41.87927093 -25.58422852 35.31152344 C-23.06071582 31.66097254 -20.81449536 27.96374643 -18.6875 24.0625 C-13.83010889 15.42183374 -7.01987709 7.01987709 0 0 Z " fill="#F6F5F2" transform="translate(954,242)"/>
<path d="M0 0 C1 1 1 1 1.4375 3.8125 C1.12607134 14.84597263 -8.47462399 25.06470152 -14.71484375 33.5 C-17.55686202 37.35347359 -20.21323629 41.29309413 -22.8125 45.3125 C-27.50516392 52.5099393 -32.71792691 59.27841862 -37.96044922 66.08105469 C-42.24761653 71.65751186 -46.41075328 77.29529074 -50.4375 83.0625 C-59.57080731 96.14242946 -69.1026435 108.84505537 -79.859375 120.64453125 C-82.2763361 123.30407056 -84.62957594 126.01143979 -86.9609375 128.74609375 C-88.62549555 130.58603627 -90.3240057 132.30812844 -92.1015625 134.03515625 C-99.19877662 140.56778979 -99.19877662 140.56778979 -102.0625 149.375 C-101.43086949 154.04754375 -99.45974187 157.79518647 -96 161 C-91.23716082 163.95315915 -86.42325997 163.62850205 -81 163 C-66.58215994 159.48970038 -56.90806372 152.13483472 -45.94140625 142.51171875 C-43 140 -43 140 -41 139 C-41 140.32 -41 141.64 -41 143 C-40.34 143 -39.68 143 -39 143 C-38.67 143.99 -38.34 144.98 -38 146 C-37.01 146 -36.02 146 -35 146 C-35.49653333 150.27611541 -36.64917363 152.06761764 -39.8125 154.9375 C-43.14618899 158.09163662 -45.6444281 161.07404684 -48 165 C-46.68 165 -45.36 165 -44 165 C-44 164.34 -44 163.68 -44 163 C-43.01 163.33 -42.02 163.66 -41 164 C-48.67185168 173.6227693 -48.67185168 173.6227693 -54.13671875 174.2421875 C-57.64529428 174.34657487 -60.34893635 174.26352576 -63.625 172.9375 C-67.02930615 171.59369494 -69.46753297 172.24304278 -73 173 C-73.75796875 173.33644531 -74.5159375 173.67289063 -75.296875 174.01953125 C-81.31158992 176.20116917 -88.61873667 176.05053702 -94.703125 174.16015625 C-100.18468832 171.39140743 -104.07730992 167.39330939 -107 162 C-107.875 158.5 -107.875 158.5 -108 156 C-109.258125 155.979375 -110.51625 155.95875 -111.8125 155.9375 C-112.87404297 155.92009766 -112.87404297 155.92009766 -113.95703125 155.90234375 C-116.20305461 155.91736783 -116.20305461 155.91736783 -119 157 C-121.44839624 156.16396226 -123.68860855 155.15569573 -126 154 C-126 152.68 -126 151.36 -126 150 C-123.18637535 147.61268212 -120.17853695 145.66036416 -117.11328125 143.609375 C-110.31179052 138.44219781 -107.24571858 129.58322956 -103.75 122.0625 C-91.06732809 95.24417747 -76.04414653 69.85297584 -57 47 C-56.26394531 46.07960937 -55.52789063 45.15921875 -54.76953125 44.2109375 C-42.60575466 29.3126685 -28.89379263 14.92982875 -13 4 C-11.97261719 3.26394531 -10.94523438 2.52789062 -9.88671875 1.76953125 C-6.34403755 -0.40209877 -4.08490635 -0.40048101 0 0 Z " fill="#282425" transform="translate(915,56)"/>
<path d="M0 0 C3.66027386 2.13515975 5.39599724 4.14209682 7 8 C10.89804272 30.86351978 -7.76545663 55.19399266 -19.68554688 73.03125 C-20.94036414 74.91067912 -22.18289745 76.79760298 -23.421875 78.6875 C-29.18531273 87.44778365 -35.18833161 96.03542622 -41.21875 104.61328125 C-45.20881294 110.28991953 -49.16737644 115.98822033 -53.125 121.6875 C-57.72572938 128.30904916 -62.34089282 134.91938968 -67 141.5 C-73.70002132 150.96483735 -80.31160727 160.49087644 -86.92675781 170.01513672 C-90.32459087 174.90702403 -93.72444701 179.79750315 -97.125 184.6875 C-97.78258301 185.63334961 -98.44016602 186.57919922 -99.11767578 187.55371094 C-102.37250358 192.23287776 -105.63333564 196.90768165 -108.90625 201.57421875 C-109.53257324 202.46729736 -110.15889648 203.36037598 -110.80419922 204.28051758 C-111.97149692 205.94381507 -113.13970885 207.60647156 -114.30908203 209.26831055 C-117.95345034 214.45990002 -121.50436572 219.70714864 -125 225 C-125.60328125 224.82597656 -126.2065625 224.65195313 -126.828125 224.47265625 C-129.4819339 223.8951187 -131.38967219 224.34741805 -134 225 C-134 221.49901333 -133.35180617 220.71821009 -131.359375 217.9296875 C-130.78944824 217.12442627 -130.21952148 216.31916504 -129.63232422 215.48950195 C-129.01115723 214.62671631 -128.38999023 213.76393066 -127.75 212.875 C-127.11465332 211.98063232 -126.47930664 211.08626465 -125.82470703 210.16479492 C-124.51580105 208.32289093 -123.20409539 206.48297338 -121.88964844 204.64501953 C-119.6907297 201.5671015 -117.51043045 198.47644187 -115.33300781 195.38330078 C-113.86761893 193.30201671 -112.39915122 191.22293996 -110.9296875 189.14453125 C-107.95099792 184.93118778 -104.97526452 180.71576254 -102 176.5 C-99.02473548 172.28423746 -96.04900208 168.06881222 -93.0703125 163.85546875 C-92.08846912 162.4661971 -91.10669871 161.07687388 -90.125 159.6875 C-89.38914673 158.64613892 -89.38914673 158.64613892 -88.63842773 157.58374023 C-85.9453369 153.76863711 -83.26196949 149.94700813 -80.58984375 146.1171875 C-74.89094058 137.94973732 -69.16542984 129.80802769 -63.3125 121.75 C-58.81303324 115.55394656 -54.41193711 109.30199796 -50.09960938 102.97436523 C-47.23715189 98.77911504 -44.32089445 94.62733371 -41.36889648 90.49462891 C-14.27771491 54.15226345 -14.27771491 54.15226345 -4 12 C-5.23053455 10.55314991 -5.23053455 10.55314991 -8.9375 10.6875 C-28.95169359 11.00367999 -46.98488055 31.85322573 -60.67578125 44.46484375 C-65.16780468 48.58835606 -69.68923801 52.6102371 -74.4375 56.4375 C-79.56747127 60.57811967 -84.404648 64.9726732 -89.23828125 69.44921875 C-93.79961242 73.6621597 -98.49022292 77.71432894 -103.21484375 81.7421875 C-104.41421409 82.76544735 -105.61342817 83.78889037 -106.8125 84.8125 C-107.41860107 85.32973633 -108.02470215 85.84697266 -108.64916992 86.37988281 C-112.39051541 89.5848938 -116.0610693 92.85201503 -119.6875 96.1875 C-123.18259889 99.39645044 -126.7428384 102.46065837 -130.4375 105.4375 C-134.97477021 109.09700528 -139.26030973 112.94995021 -143.52368164 116.91821289 C-146.71306313 119.86917437 -149.9835583 122.65985753 -153.375 125.375 C-157.76806489 128.90717609 -161.89917058 132.6389592 -166 136.5 C-170.93519312 141.14661659 -175.99475404 145.51926057 -181.2890625 149.7578125 C-184.28904435 152.2390655 -187.15153651 154.84864307 -190 157.5 C-193.70859535 160.95164054 -197.48506077 164.26522294 -201.4375 167.4375 C-206.85267975 171.79625017 -211.91665562 176.47230936 -216.99609375 181.2109375 C-219.37892822 183.43253871 -221.79286173 185.61038457 -224.25 187.75 C-225.17232422 188.554375 -225.17232422 188.554375 -226.11328125 189.375 C-227.45586272 190.53134346 -228.80856056 191.67598577 -230.16796875 192.8125 C-242.72155955 203.52950695 -252.26948338 217.06514909 -257.796875 232.63671875 C-259 235 -259 235 -260.88671875 236.31640625 C-264.41686622 237.45832086 -267.28884827 237.23562868 -271 237 C-271.99 236.34 -272.98 235.68 -274 235 C-275.00750182 227.29748611 -270.22527626 221.31696871 -265.79833984 215.39160156 C-256.76716267 203.86288764 -246.18446889 193.42578032 -235 184 C-233.92875625 183.07790369 -232.85853985 182.1546132 -231.7890625 181.23046875 C-226.33127857 176.52058388 -220.85261994 171.8502248 -215.25 167.3125 C-210.87348373 163.76137934 -206.6916854 160.04202602 -202.52734375 156.24609375 C-199.93037607 153.93812402 -197.26595987 151.74444137 -194.5625 149.5625 C-190.75912497 146.48663412 -187.09917348 143.31246834 -183.5 140 C-179.12829537 135.98025464 -174.62213114 132.20011805 -170.00390625 128.46875 C-164.5369753 123.97577164 -159.23324209 119.29253937 -153.89648438 114.64648438 C-150.92144811 112.06362591 -147.9305594 109.49943086 -144.9375 106.9375 C-144.36410889 106.44660889 -143.79071777 105.95571777 -143.19995117 105.44995117 C-142.04469482 104.46114797 -140.88934024 103.47245951 -139.73388672 102.48388672 C-136.82105954 99.99104476 -133.91065939 97.49537234 -131 95 C-129.83334482 93.9999866 -128.66667816 92.99998659 -127.5 92 C-126.9225 91.505 -126.345 91.01 -125.75 90.5 C-105.33333333 73 -84.91666667 55.5 -64.5 38 C-63.92233887 37.5047583 -63.34467773 37.0095166 -62.74951172 36.49926758 C-61.58488626 35.50122614 -60.41984822 34.50366595 -59.25439453 33.5065918 C-56.30289605 30.98044906 -53.3594464 28.44586963 -50.4296875 25.89453125 C-18.19794151 -2.12212417 -18.19794151 -2.12212417 0 0 Z " fill="#292627" transform="translate(320,10)"/>
<path d="M0 0 C0.91394531 0.8146875 1.82789063 1.629375 2.76953125 2.46875 C6.36220988 5.58485467 10.23727428 6.56072599 14.75 7.8125 C22.57430975 10.18599799 28.01345865 13.34540836 34 19 C37.85778486 22.45932011 37.85778486 22.45932011 42.9375 23.3125 C48.30630988 22.49550719 52.49020396 19.39319522 56.77514648 16.23950195 C61.20359761 13.08742305 64.51993384 12.07291797 70 12 C72.25 13.07421875 72.25 13.07421875 74 14.6875 C77.78571447 17.87547008 81.45510029 20.05593885 86 22 C86.61746094 22.26554687 87.23492188 22.53109375 87.87109375 22.8046875 C103.5834923 28.7466082 121.49945892 28.79326959 138.03417969 29.75048828 C141.0655118 30.00551145 144.00277073 30.48662944 147 31 C148.72969773 31.18695926 150.46169691 31.35376393 152.1953125 31.5 C153.15953125 31.5825 154.12375 31.665 155.1171875 31.75 C156.10976562 31.8325 157.10234375 31.915 158.125 32 C159.094375 32.0825 160.06375 32.165 161.0625 32.25 C163.04428864 32.41821548 165.02631129 32.58369407 167.00854492 32.74658203 C168.97068413 32.91280259 170.93189403 33.09047515 172.8918457 33.28076172 C180.91613421 34.03436109 188.88109052 34.14972555 196.9375 34.125 C198.22462891 34.12886719 199.51175781 34.13273437 200.83789062 34.13671875 C202.07603516 34.13542969 203.31417969 34.13414062 204.58984375 34.1328125 C205.70222412 34.13168457 206.81460449 34.13055664 207.96069336 34.12939453 C210.76455963 34.01002357 213.26331513 33.58020577 216 33 C218.33301986 32.96175377 220.66711508 32.95425716 223 33 C223.33 34.32 223.66 35.64 224 37 C219.07422855 41.36282615 215.34203487 42.11698704 208.89477539 42.14526367 C207.39546982 42.15468239 207.39546982 42.15468239 205.86587524 42.16429138 C204.78736298 42.16550491 203.70885071 42.16671844 202.59765625 42.16796875 C201.46451996 42.17220352 200.33138367 42.17643829 199.16390991 42.18080139 C195.46340278 42.19073706 191.7630182 42.19071084 188.0625 42.1875 C186.16880173 42.18659363 186.16880173 42.18659363 184.23684692 42.18566895 C97.27325541 42.07255813 97.27325541 42.07255813 67.87109375 30.37890625 C63.54835367 28.73257704 63.54835367 28.73257704 59 29 C56.17152544 30.64833128 53.63396364 32.60507592 51.0625 34.625 C50.02706055 35.40810547 50.02706055 35.40810547 48.97070312 36.20703125 C45.65886943 38.74976613 42.60027784 41.33455684 39.71875 44.359375 C37 47 37 47 33.4375 47.625 C29.40567722 46.89194131 27.81749413 45.94933528 25 43 C24.90625 39.9765625 24.90625 39.9765625 25.5 36.625 C26.11916732 32.2081723 26.11916732 32.2081723 25.21875 27.95703125 C21.45367061 23.26274958 15.7924354 20.28016625 10 19 C10.05220703 20.08667969 10.05220703 20.08667969 10.10546875 21.1953125 C10.38722094 31.25789069 10.38722094 31.25789069 7 36 C-1.38934911 44.79858565 -15.58681376 45.94752872 -27.1875 46.375 C-32.86716074 46.29290241 -37.0855425 44.74372179 -42 42 C-42.66 41.67 -43.32 41.34 -44 41 C-44.59355614 38.35139573 -44.74209269 35.70802678 -45 33 C-44.01 32.34 -43.02 31.68 -42 31 C-41.649375 31.474375 -41.29875 31.94875 -40.9375 32.4375 C-34.84334877 37.35213809 -20.71215361 35.45000103 -13.13671875 34.7265625 C-8.05718115 33.82163647 -5.26635252 32.18501417 -2 28 C-1.07649273 25.22947819 -0.83670415 23.43311242 -0.8125 20.5625 C-0.79832031 19.80066406 -0.78414062 19.03882813 -0.76953125 18.25390625 C-1.15072329 14.52597735 -2.542024 12.47144589 -5.125 9.8125 C-8.70017508 7.55858528 -11.7975454 6.2643748 -16 7 C-18.18359957 8.53774618 -19.96642812 10.27803001 -21.86328125 12.15625 C-24.82661633 14.71327771 -27.9402891 15.78683428 -31.58984375 17.08984375 C-34.97775184 18.36923206 -37.91154111 20.1200685 -41 22 C-41.33 21.01 -41.66 20.02 -42 19 C-43.31647119 18.30062468 -44.65022151 17.63270867 -46 17 C-46.33 16.34 -46.66 15.68 -47 15 C-48.98 15.99 -48.98 15.99 -51 17 C-46.83892654 7.72783632 -40.89162449 3.57754002 -32 -1 C-31.28585937 -1.38285156 -30.57171875 -1.76570312 -29.8359375 -2.16015625 C-20.48492335 -6.43774783 -8.82377229 -4.74498695 0 0 Z " fill="#292526" transform="translate(1085,193)"/>
<path d="M0 0 C1.47437939 2.94875877 1.36089509 4.69179497 1 8 C-2.49370464 17.32248738 -10.23273752 23.7733025 -17.6015625 30.08984375 C-22.63591964 34.47485465 -27.33743707 39.18725473 -32.0456543 43.9152832 C-33.5599258 45.43491668 -35.0794743 46.94912517 -36.59960938 48.46289062 C-41.40984045 53.26983281 -46.11531437 58.12516105 -50.53979492 63.29467773 C-52.59092389 65.69011927 -54.73526128 67.99625085 -56.875 70.3125 C-60.97077154 74.80364013 -64.8592158 79.41594094 -68.671875 84.1484375 C-70.68565863 86.61498456 -72.74769488 89.02913747 -74.83447266 91.43383789 C-81.82792956 99.52893462 -88.12360811 108.10296957 -94.38671875 116.76953125 C-95.80249197 118.726932 -97.22729255 120.67722107 -98.65625 122.625 C-105.84169275 132.48149374 -112.41818696 142.73435956 -119 153 C-120.98 151.02 -120.98 151.02 -123 149 C-123.33 149.66 -123.66 150.32 -124 151 C-124 149.35 -124 147.7 -124 146 C-123.34 146 -122.68 146 -122 146 C-121.71125 145.113125 -121.4225 144.22625 -121.125 143.3125 C-119.70304565 139.1256344 -118.4206094 135.62454123 -115.9375 131.9375 C-114.2380497 129.36091406 -113.60747323 127.91211393 -113 125 C-120.12395559 128.25482208 -126.16359146 132.11182201 -132.3125 136.9375 C-182.21319737 175.14809155 -182.21319737 175.14809155 -205.59765625 174.60546875 C-210.44304602 173.74320077 -213.67561381 171.54295412 -217.5 168.53125 C-220.55673707 166.65899854 -222.47701515 166.80427862 -226 167 C-226.66 166.67 -227.32 166.34 -228 166 C-228 166.66 -228 167.32 -228 168 C-229.32 168.33 -230.64 168.66 -232 169 C-232 164.73428395 -229.45526829 163.00479799 -226.625 160.125 C-223.24602573 156.6859932 -220.44369769 153.71375992 -219 149 C-220.32 149.33 -221.64 149.66 -223 150 C-223 148.68 -223 147.36 -223 146 C-223.66 146 -224.32 146 -225 146 C-225 143.10194702 -224.42055065 141.44781827 -222.43359375 139.33203125 C-219.02159192 136.52096907 -216.18357443 134.59980372 -211.6875 134.375 C-208 135 -208 135 -206.28515625 136.68359375 C-204.68821298 139.56197478 -204.66431725 141.41013466 -204.75 144.6875 C-204.77578125 145.73808594 -204.8015625 146.78867188 -204.828125 147.87109375 C-205.05209487 151.94836335 -205.46033615 155.95252114 -206 160 C-202.13693426 162.57537716 -199.45615706 162.62039312 -195 162 C-183.99193798 159.43058268 -175.23211342 154.51636402 -165.92138672 148.28320312 C-163.53774537 146.69128204 -161.12813789 145.14257114 -158.71386719 143.59765625 C-157.56799608 142.86377641 -156.42411898 142.1267741 -155.28222656 141.38671875 C-152.2700409 139.43635827 -149.23948523 137.52759896 -146.16796875 135.671875 C-128.66301212 125.05822508 -111.76605322 112.32795285 -97.54296875 97.54296875 C-95.9170203 95.9170203 -94.20462186 94.47074922 -92.4375 93 C-86.47322132 87.8485117 -81.29355683 81.9052965 -75.96337891 76.11621094 C-73.94360037 73.93921014 -71.90329466 71.78343611 -69.85546875 69.6328125 C-63.4026554 62.85264427 -57.10295649 56.08512852 -51.27734375 48.75 C-47.38797208 44.05340024 -43.17086271 39.66053312 -39 35.21484375 C-36.7435636 32.80765406 -34.5336093 30.370892 -32.375 27.875 C-8.26043897 0 -8.26043897 0 0 0 Z " fill="#272324" transform="translate(1099,53)"/>
<path d="M0 0 C-1.33691172 8.90398773 -8.44620134 16.04819189 -13.875 22.9375 C-14.8028833 24.12134277 -14.8028833 24.12134277 -15.74951172 25.32910156 C-17.49644107 27.55530137 -19.24790292 29.77786714 -21 32 C-21.74765625 32.95519531 -22.4953125 33.91039062 -23.265625 34.89453125 C-27.53799524 40.3067986 -32.00579172 45.53828586 -36.50830078 50.75878906 C-39.55762721 54.29888898 -42.55555552 57.87154664 -45.5 61.5 C-49.43405435 66.34629883 -53.48307364 71.08346778 -57.56079102 75.80859375 C-60.58601268 79.32256051 -63.53725051 82.88134009 -66.4375 86.5 C-70.52598606 91.54172143 -74.89051819 96.28221057 -79.33691406 101.00634766 C-82.21287315 104.06258316 -85.00411048 107.14605138 -87.6875 110.375 C-92.57236928 116.01513585 -98.35508464 122.03418329 -106 123 C-106.83919941 114.57070819 -104.68828393 108.5142638 -101 101 C-100.58878906 100.13890625 -100.17757812 99.2778125 -99.75390625 98.390625 C-93.25590558 85.66457028 -84.14508906 73.92523998 -75 63 C-74.15953125 61.98679687 -73.3190625 60.97359375 -72.453125 59.9296875 C-57.89861842 42.47939711 -42.29942739 24.60053136 -24 11 C-22.71029297 10.03707031 -22.71029297 10.03707031 -21.39453125 9.0546875 C-7.79532715 -0.77953271 -7.79532715 -0.77953271 0 0 Z " fill="#F6F5F2" transform="translate(130,305)"/>
<path d="M0 0 C0.76441406 -0.00515625 1.52882813 -0.0103125 2.31640625 -0.015625 C4.4375 0.25 4.4375 0.25 7.4375 2.25 C8.84136834 10.8291954 4.43665539 17.02683034 -0.390625 23.82421875 C-13.31183887 40.55351395 -13.31183887 40.55351395 -21.5625 43.25 C-20.9025 45.23 -20.2425 47.21 -19.5625 49.25 C-13.40671936 49.7090196 -9.09708284 48.22348708 -3.5 45.75 C-2.67306641 45.39413818 -1.84613281 45.03827637 -0.99414062 44.67163086 C5.52058685 41.80477347 11.6580508 38.48738036 17.75 34.81640625 C20.4375 33.25 20.4375 33.25 23.4375 32.25 C23.7675 33.24 24.0975 34.23 24.4375 35.25 C26.94197516 36.46869929 26.94197516 36.46869929 29.4375 37.25 C25.9224267 40.9814864 22.27972426 43.94228987 17.9375 46.6875 C17.32874023 47.07437988 16.71998047 47.46125977 16.09277344 47.85986328 C3.9901361 55.38726588 -9.94665974 62.37559839 -24.5625 60.25 C-27.58532978 59.10633064 -30.35595015 57.800918 -33.1875 56.24609375 C-36.00449985 55.06462178 -36.72646514 55.33222761 -39.5625 56.25 C-40.95329361 56.85695018 -42.32792704 57.50179553 -43.6875 58.17578125 C-44.47068604 58.55871338 -45.25387207 58.94164551 -46.06079102 59.33618164 C-46.88635498 59.7408667 -47.71191895 60.14555176 -48.5625 60.5625 C-70.91728672 71.28153449 -70.91728672 71.28153449 -80.5625 69.25 C-82.328125 67.88671875 -82.328125 67.88671875 -83.5625 66.25 C-83.90147176 61.50439537 -81.76813738 58.99863797 -78.8125 55.5625 C-75.99492196 52.44918381 -73.32904588 50.1421984 -69.5625 48.25 C-65.75 48.0625 -65.75 48.0625 -62.5625 48.25 C-62.2325 49.57 -61.9025 50.89 -61.5625 52.25 C-56.21575125 51.73036713 -52.29608554 50.45598829 -47.4375 48 C-46.25929688 47.41734375 -45.08109375 46.8346875 -43.8671875 46.234375 C-37.32371026 42.30519481 -34.63956865 37.99275783 -31.9375 31.125 C-28.75030951 23.15702377 -28.75030951 23.15702377 -25.5625 20.25 C-24.985 20.745 -24.4075 21.24 -23.8125 21.75 C-21.45849371 23.61980013 -21.45849371 23.61980013 -17.5625 23.25 C-16.59257062 21.87872053 -15.63541928 20.49469148 -14.77734375 19.05078125 C-12.51685182 15.70001991 -9.48269389 13.02254364 -6.5625 10.25 C-7.0575 9.26 -7.0575 9.26 -7.5625 8.25 C-7.28307545 6.57345271 -6.95421753 4.90391846 -6.5625 3.25 C-7.5525 2.755 -7.5525 2.755 -8.5625 2.25 C-5.58784237 0.54245166 -3.42389168 -0.02317355 0 0 Z " fill="#282425" transform="translate(766.5625,174.75)"/>
<path d="M0 0 C-10.52868465 33.56316972 -25.56655409 62.13503498 -47 90 C-48.10988281 91.4540625 -48.10988281 91.4540625 -49.2421875 92.9375 C-74.56126953 125.04018514 -74.56126953 125.04018514 -91 127.4375 C-95.2311702 126.82045435 -96.3932994 125.36127182 -99 122 C-104.84129295 113.36173616 -104.06418969 102.57660601 -102.3046875 92.71484375 C-97.25781311 68.09587577 -83.96397602 43.01612226 -69 23 C-68.34 23.33 -67.68 23.66 -67 24 C-67.0928125 25.3921875 -67.0928125 25.3921875 -67.1875 26.8125 C-67.33146455 29.98080688 -67.33146455 29.98080688 -65.48828125 31.69921875 C-64.99714844 32.12847656 -64.50601563 32.55773437 -64 33 C-64.35191406 33.49177734 -64.70382812 33.98355469 -65.06640625 34.49023438 C-75.5518681 49.23284849 -84.39042503 63.36426005 -89 81 C-89.37384481 82.31413126 -89.74890093 83.62791837 -90.125 84.94140625 C-94.17176695 98.52651934 -94.17176695 98.52651934 -91.47265625 111.83203125 C-90.98667969 112.54746094 -90.50070312 113.26289063 -90 114 C-78.92312183 113.79487263 -71.76176642 106.17452622 -64.39160156 98.67749023 C-59.60862119 93.695603 -55.24158054 88.44944785 -51 83 C-49.98500544 81.7599004 -48.96933872 80.52035074 -47.953125 79.28125 C-41.75686776 71.56833367 -37.85133412 65.08256136 -35.12109375 55.51171875 C-33.30179206 49.81293054 -30.15104052 45.04796691 -27 40 C-21.16390429 30.54140908 -16.66720013 21.36944528 -13.55859375 10.65039062 C-12.26499506 6.47286702 -11.44780873 4.39885798 -8.10546875 1.421875 C-4.97367288 -0.01205418 -3.35457732 -0.12928175 0 0 Z " fill="#2A2627" transform="translate(960,295)"/>
<path d="M0 0 C-0.63623338 4.01316441 -2.74577351 7.04884142 -4.9375 10.375 C-5.53703491 11.29647827 -5.53703491 11.29647827 -6.14868164 12.23657227 C-9.36906904 17.14248954 -12.75215586 21.92130075 -16.19482422 26.67285156 C-19.26262944 30.92021784 -22.18402453 35.24757433 -25.0625 39.625 C-28.78704469 45.27193706 -32.68944265 50.73484274 -36.796875 56.11328125 C-38.26304627 58.03438155 -39.71115608 59.96940436 -41.140625 61.91796875 C-45.3613294 67.66450334 -49.75277455 73.19784691 -54.375 78.625 C-54.88716064 79.22940918 -55.39932129 79.83381836 -55.92700195 80.45654297 C-58.16435751 83.05287029 -60.13109468 85.08739645 -63 87 C-63.99 87 -64.98 87 -66 87 C-66.27042567 71.58573708 -51.76162522 56.74415776 -43 45 C-42.35015137 44.12408203 -41.70030273 43.24816406 -41.03076172 42.34570312 C-33.15597967 31.75528349 -25.2501716 21.43018991 -16 12 C-15.2584668 11.23792236 -15.2584668 11.23792236 -14.50195312 10.46044922 C-4.30823733 0 -4.30823733 0 0 0 Z " fill="#F6F5F2" transform="translate(893,83)"/>
<path d="M0 0 C0.495 1.98 0.495 1.98 1 4 C1.66 4 2.32 4 3 4 C3.495 5.485 3.495 5.485 4 7 C4.99 7 5.98 7 7 7 C6.50346667 11.27611541 5.35082637 13.06761764 2.1875 15.9375 C-1.14618899 19.09163662 -3.6444281 22.07404684 -6 26 C-4.68 26 -3.36 26 -2 26 C-2 25.34 -2 24.68 -2 24 C-1.01 24.33 -0.02 24.66 1 25 C-6.67185168 34.6227693 -6.67185168 34.6227693 -12.13671875 35.2421875 C-15.64529428 35.34657487 -18.34893635 35.26352576 -21.625 33.9375 C-25.02930615 32.59369494 -27.46753297 33.24304278 -31 34 C-31.7528125 34.33902344 -32.505625 34.67804688 -33.28125 35.02734375 C-36.63158756 36.22595589 -39.44669593 36.30101303 -43 36.3125 C-44.19625 36.32925781 -45.3925 36.34601563 -46.625 36.36328125 C-50.23516929 35.97468664 -52.15066819 35.21794579 -55 33 C-55 32.34 -55 31.68 -55 31 C-55.66 30.67 -56.32 30.34 -57 30 C-55.43068617 27.21010875 -54.58812314 25.77636965 -52 24 C-49.30078125 23.77734375 -49.30078125 23.77734375 -46.125 23.9375 C-27.31904048 24.81169993 -14.2113362 12.66880381 -1 1 C-0.67 0.67 -0.34 0.34 0 0 Z " fill="#272324" transform="translate(873,195)"/>
<path d="M0 0 C5.53846154 3.07692308 5.53846154 3.07692308 7 6 C8.47889995 16.01618602 5.39311218 23.74363554 0 32 C-8.17219507 41.71612769 -8.17219507 41.71612769 -13.0234375 42.203125 C-16.44659169 42.27136063 -19.27258522 42.27278054 -22.5 41.0625 C-24.96869129 37.66804948 -25.17845249 34.13674695 -25 30 C-23.88943964 26.2585115 -22.22056138 22.90080206 -20.4375 19.4375 C-20.00630859 18.54353516 -19.57511719 17.64957031 -19.13085938 16.72851562 C-10.41626112 -0.86802176 -10.41626112 -0.86802176 0 0 Z " fill="#F6F5F2" transform="translate(454,201)"/>
<path d="M0 0 C4.42424383 0.94926304 6.86574051 2.97861528 10 6.1875 C12.56436345 10.43226543 12.54578727 14.35098515 12 19.1875 C10.45699071 23.35362507 8.96743487 26.09937638 5 28.1875 C-3.78759009 30.97023686 -16.31759905 32.50515714 -24.875 28.3125 C-28 26.1875 -28 26.1875 -30 24.1875 C-30.4375 21.375 -30.4375 21.375 -30 18.1875 C-25.80457682 12.8478705 -20.26614 9.88983985 -13.9375 7.8125 C-10.7531781 6.72457428 -9.17257759 5.49278096 -7 2.9375 C-4.69909957 0.43026883 -3.42749195 -0.25316702 0 0 Z " fill="#F6F5F2" transform="translate(1073,198.8125)"/>
<path d="M0 0 C14.13793103 0 14.13793103 0 19 3 C21.27042717 5.70986468 21.91835776 7.45183064 22.4375 10.9375 C21.87236169 14.89346816 20.56163859 16.95372709 18 20 C15.35546875 21.171875 15.35546875 21.171875 13 22 C14.07955259 23.73152958 15.16382512 25.46011684 16.25 27.1875 C16.85328125 28.15042969 17.4565625 29.11335938 18.078125 30.10546875 C19.95971895 33.04205091 19.95971895 33.04205091 22.234375 35.73828125 C24 38 24 38 24 40 C21.75390625 40.2890625 21.75390625 40.2890625 19 40 C16.90234375 38.0234375 16.90234375 38.0234375 14.9375 35.375 C14.25300781 34.46621094 13.56851562 33.55742187 12.86328125 32.62109375 C11.41239253 30.58011611 9.99353729 28.53387361 8.625 26.4375 C7.22998107 23.90826598 7.22998107 23.90826598 5 23 C5 28.28 5 33.56 5 39 C2.525 39.495 2.525 39.495 0 40 C0 26.8 0 13.6 0 0 Z " fill="#272324" transform="translate(1160,310)"/>
<path d="M0 0 C0.7539653 11.81212302 -1.22317783 21.61787524 -9.01953125 30.77734375 C-9.67308594 31.51082031 -10.32664062 32.24429688 -11 33 C-11.70511719 33.84691406 -12.41023438 34.69382813 -13.13671875 35.56640625 C-18.45339126 41.7923875 -24.08885996 47.36295332 -32 50 C-39.23444976 50.45933014 -39.23444976 50.45933014 -42.5 48.5 C-42.995 48.005 -43.49 47.51 -44 47 C-43.45276317 43.62537285 -42.9451 41.91765 -41 39 C-39.515 38.505 -39.515 38.505 -38 38 C-37.34 37.34 -36.68 36.68 -36 36 C-34.1171875 36.05078125 -34.1171875 36.05078125 -31.875 36.3125 C-27.84994427 36.39002916 -25.89603025 35.65290306 -22.8125 33.0625 C-14.6016624 24.96615615 -9.74360427 15.9408732 -9.50390625 4.35546875 C-9 2 -9 2 -7.27734375 0.67578125 C-4.74350393 -0.0761129 -2.62951948 -0.14608442 0 0 Z " fill="#292526" transform="translate(470,206)"/>
<path d="M0 0 C0.66 0 1.32 0 2 0 C4.5683121 5.51534399 7.13167816 11.0329484 9.69042969 16.55273438 C10.56210964 18.43129894 11.43515269 20.30923162 12.30957031 22.18652344 C13.56411444 24.88052182 14.81378506 27.57673322 16.0625 30.2734375 C16.45622803 31.11619232 16.84995605 31.95894714 17.25561523 32.82723999 C17.61598877 33.60789825 17.9763623 34.38855652 18.34765625 35.19287109 C18.66742432 35.88126068 18.98719238 36.56965027 19.31665039 37.27890015 C20 39 20 39 20 41 C18.35 41 16.7 41 15 41 C11 34.375 11 34.375 11 31 C4.4 31 -2.2 31 -9 31 C-9.99 33.97 -10.98 36.94 -12 40 C-13 41 -13 41 -15.5625 41.0625 C-16.366875 41.041875 -17.17125 41.02125 -18 41 C-16.54869441 36.31745166 -14.6653182 31.93577348 -12.55859375 27.51953125 C-12.06698509 26.47752815 -12.06698509 26.47752815 -11.56544495 25.41447449 C-10.52598302 23.21229288 -9.48205842 21.01226819 -8.4375 18.8125 C-7.38997128 16.60174536 -6.3434353 14.39053437 -5.29884338 12.1783905 C-4.65073811 10.80635112 -4.00085373 9.43515037 -3.34898376 8.06489563 C-2.08750814 5.39805187 -0.93407719 2.80223158 0 0 Z " fill="#2C2829" transform="translate(1096,309)"/>
<path d="M0 0 C0.51188833 2.92507617 0.5512016 5.09803374 -1.03125 7.6875 C-6.10717529 13.6957381 -12.14357934 18.92717865 -17.9296875 24.23828125 C-20.70022013 26.78339875 -23.42910489 29.36449395 -26.1328125 31.98046875 C-26.80183594 32.62226074 -27.47085937 33.26405273 -28.16015625 33.92529297 C-29.4433573 35.15779099 -30.71974846 36.3974295 -31.98828125 37.64501953 C-35.18546247 40.69310483 -37.37531745 42.74695133 -42 43 C-42.33 42.34 -42.66 41.68 -43 41 C-42.34 41 -41.68 41 -41 41 C-41.33 40.34 -41.66 39.68 -42 39 C-43.485 39.495 -43.485 39.495 -45 40 C-45 40.66 -45 41.32 -45 42 C-45.66 41.67 -46.32 41.34 -47 41 C-45.17429443 36.75263316 -42.29418054 34.22050993 -38.97265625 31.09765625 C-36.92342095 29.08146157 -36.92342095 29.08146157 -35.62890625 26.60546875 C-33.53312145 23.25321824 -30.80820502 20.84527817 -27.875 18.25 C-26.70430574 17.19428464 -25.53504257 16.13698027 -24.3671875 15.078125 C-23.50818848 14.29985352 -23.50818848 14.29985352 -22.63183594 13.50585938 C-20.35322214 11.40315293 -18.17377809 9.21037368 -16 7 C-7.28571429 -1.71428571 -7.28571429 -1.71428571 0 0 Z " fill="#272425" transform="translate(512,128)"/>
<path d="M0 0 C15.18518519 0 15.18518519 0 20 4 C22.09253043 7.45542854 22.48495433 9.95871392 22 14 C19.52915968 18.84664831 17.13762955 21.18671898 12 23 C9.69 23 7.38 23 5 23 C5 28.61 5 34.22 5 40 C3.35 40 1.7 40 0 40 C0 26.8 0 13.6 0 0 Z " fill="#282526" transform="translate(1020,310)"/>
<path d="M0 0 C1.95325187 4.00416633 1.49322208 7.35299367 0.25 11.5625 C-1.15006268 14.39143323 -2.23575598 15.43085833 -4.75 17.5625 C-8.2543228 17.97826711 -10.57121306 18.15189347 -13.75 16.5625 C-13.75 14.5825 -13.75 12.6025 -13.75 10.5625 C-22.13364289 13.11326794 -27.58460329 17.42333902 -33.75 23.5625 C-34.08 22.9025 -34.41 22.2425 -34.75 21.5625 C-35.74 21.2325 -36.73 20.9025 -37.75 20.5625 C-35.75 18.5625 -35.75 18.5625 -33.75 17.5625 C-33.75 15.9125 -33.75 14.2625 -33.75 12.5625 C-34.41 12.2325 -35.07 11.9025 -35.75 11.5625 C-12.9516599 -6.77018586 -12.9516599 -6.77018586 0 0 Z " fill="#292526" transform="translate(361.75,195.4375)"/>
<path d="M0 0 C3.4375 1.8125 3.4375 1.8125 6 4 C6 4.99 6 5.98 6 7 C4.1875 7.625 4.1875 7.625 2 8 C1.01 7.34 0.02 6.68 -1 6 C-5.34170904 6.0931435 -5.34170904 6.0931435 -9 8 C-9.04063832 9.66617115 -9.042721 11.33388095 -9 13 C-8.02417969 13.53109375 -7.04835938 14.0621875 -6.04296875 14.609375 C-4.75755439 15.32245158 -3.47241232 16.03601917 -2.1875 16.75 C-1.54490234 17.09804688 -0.90230469 17.44609375 -0.24023438 17.8046875 C3.27513068 19.77183478 6.02976027 21.42491046 8 25 C8.54584953 30.00362068 8.11758738 33.02238851 5 37 C2.70613466 39.57190962 1.05895083 40.82728809 -2.37109375 41.38671875 C-6.67332297 41.57210456 -9.26172193 41.446043 -13 39.1875 C-16.04004341 35.86245252 -17 34.6248673 -17 30 C-14.6875 29.6875 -14.6875 29.6875 -12 30 C-11.54625 30.804375 -11.0925 31.60875 -10.625 32.4375 C-9.16508515 35.37914883 -9.16508515 35.37914883 -5.5 35.9375 C-1.88461063 36.3343558 -1.88461063 36.3343558 1 34 C2.08916154 30.62649951 2.08916154 30.62649951 2 27 C-0.17673404 23.47576394 -3.43148294 22.27714695 -7.0625 20.5625 C-10.14558317 19.07317558 -11.85214972 18.16959297 -14.125 15.5625 C-15.27177201 12.20409627 -15.7752744 10.52397454 -15 7 C-10.88978883 1.85185672 -6.80317259 -1.38583145 0 0 Z " fill="#2E2B2C" transform="translate(1297,309)"/>
<path d="M0 0 C0.76441406 -0.00515625 1.52882813 -0.0103125 2.31640625 -0.015625 C4.4375 0.25 4.4375 0.25 7.4375 2.25 C8.68385819 9.86663341 5.36692337 14.88807646 1.4375 21.25 C0.4475 20.92 -0.5425 20.59 -1.5625 20.25 C-1.5625 19.59 -1.5625 18.93 -1.5625 18.25 C-2.18125 18.58 -2.8 18.91 -3.4375 19.25 C-5.5625 20.25 -5.5625 20.25 -7.5625 20.25 C-8.93473158 21.37065579 -10.26285578 22.54591786 -11.5625 23.75 C-15.34027778 27.25 -15.34027778 27.25 -17.5625 27.25 C-17.3729015 19.66605996 -11.6167087 15.25769758 -6.5625 10.25 C-6.8925 9.59 -7.2225 8.93 -7.5625 8.25 C-7.28307545 6.57345271 -6.95421753 4.90391846 -6.5625 3.25 C-7.2225 2.92 -7.8825 2.59 -8.5625 2.25 C-5.58784237 0.54245166 -3.42389168 -0.02317355 0 0 Z " fill="#282425" transform="translate(766.5625,174.75)"/>
<path d="M0 0 C1 1 1 1 1.3125 3.6875 C0.79042849 9.22145805 -2.27103737 12.5011393 -6.25 16.125 C-10.64548366 19.70929998 -15.25913436 22.77159453 -21 23.25 C-21.99 23.12625 -21.99 23.12625 -23 23 C-23.72265625 20.7421875 -23.72265625 20.7421875 -24 18 C-22.55859375 16.0078125 -22.55859375 16.0078125 -20.4375 14.125 C-17.68695825 11.59009306 -15.16311536 9.09807871 -12.8125 6.1875 C-9.15254184 1.85490088 -5.89342661 -0.65482518 0 0 Z " fill="#F6F5F2" transform="translate(389,215)"/>
<path d="M0 0 C0.33 1.32 0.66 2.64 1 4 C1.66 4 2.32 4 3 4 C3.33 4.99 3.66 5.98 4 7 C4.99 7 5.98 7 7 7 C6.05702542 14.66332866 -0.53857857 18.97709488 -6.3125 23.5 C-9.59042553 26 -9.59042553 26 -13 26 C-12.125 21.25 -12.125 21.25 -11 19 C-11.66 19 -12.32 19 -13 19 C-12.67 17.35 -12.34 15.7 -12 14 C-12.99 13.67 -13.98 13.34 -15 13 C-14.00097656 12.14535156 -13.00195312 11.29070312 -11.97265625 10.41015625 C-10.66925232 9.29429246 -9.36586791 8.17840586 -8.0625 7.0625 C-7.0734668 6.21655273 -7.0734668 6.21655273 -6.06445312 5.35351562 C-5.43603516 4.81533203 -4.80761719 4.27714844 -4.16015625 3.72265625 C-3.57886963 3.22515869 -2.99758301 2.72766113 -2.39868164 2.21508789 C-1.57708043 1.5013317 -0.76957015 0.76957015 0 0 Z " fill="#292526" transform="translate(873,195)"/>
<path d="M0 0 C1.65 0 3.3 0 5 0 C5 13.2 5 26.4 5 40 C3.35 40 1.7 40 0 40 C0 26.8 0 13.6 0 0 Z " fill="#262324" transform="translate(1229,310)"/>
<path d="M0 0 C0.66 0 1.32 0 2 0 C3.00460531 2.12282669 4.00355602 4.24833021 5 6.375 C5.556875 7.55835938 6.11375 8.74171875 6.6875 9.9609375 C8 13 8 13 8 15 C6.35 15.33 4.7 15.66 3 16 C2.67 14.35 2.34 12.7 2 11 C1.34 11 0.68 11 0 11 C-0.12375 11.9590625 -0.12375 11.9590625 -0.25 12.9375 C-1.29868424 17.21962732 -2.71671164 21.2121607 -5 25 C-7.625 26.5 -7.625 26.5 -10 27 C-10.66 27.33 -11.32 27.66 -12 28 C-10.20513796 21.95523473 -7.50677707 16.33824153 -4.875 10.625 C-4.40707031 9.60277344 -3.93914062 8.58054687 -3.45703125 7.52734375 C-2.30741708 5.01696179 -1.15499936 2.50790769 0 0 Z " fill="#2F2C2D" transform="translate(1096,309)"/>
<path d="M0 0 C7.28089888 -0.48539326 7.28089888 -0.48539326 10.5 1.6875 C12.31567651 4.48666796 12.65420677 5.72896614 12 9 C10.12972515 11.24432982 8.61113596 12.69443202 6 14 C4.02 14 2.04 14 0 14 C0 9.38 0 4.76 0 0 Z " fill="#F6F5F2" transform="translate(1165,315)"/>
<path d="M0 0 C7.28089888 -0.48539326 7.28089888 -0.48539326 10.5 1.6875 C12 4 12 4 12.5625 6.5 C12 9 12 9 9.9375 11.25 C6.55735774 13.26370177 3.89342625 13.69463324 0 14 C0 9.38 0 4.76 0 0 Z " fill="#F6F5F2" transform="translate(1025,315)"/>
<path d="M0 0 C13.19017433 -0.58478605 13.19017433 -0.58478605 19 3 C22.02936588 6.61569476 22.32366639 9.36078177 22 14 C21.01 14 20.02 14 19 14 C18.01 15.485 18.01 15.485 17 17 C16.34 16.34 15.68 15.68 15 15 C15.33 14.67 15.66 14.34 16 14 C15.71269945 11.66055264 15.38063221 9.3260857 15 7 C11.7 6.34 8.4 5.68 5 5 C5 6.65 5 8.3 5 10 C4.67 10 4.34 10 4 10 C3.34 8.02 2.68 6.04 2 4 C1.01 4.495 1.01 4.495 0 5 C0 3.35 0 1.7 0 0 Z " fill="#2D2A2B" transform="translate(1160,310)"/>
<path d="M0 0 C-0.94297458 7.66332866 -7.53857857 11.97709488 -13.3125 16.5 C-16.59042553 19 -16.59042553 19 -20 19 C-19.88414309 15.17672201 -18.57793415 13.26247073 -16 10.625 C-4.6978022 0 -4.6978022 0 0 0 Z " fill="#F6F5F2" transform="translate(880,202)"/>
<path d="M0 0 C0.99 0.33 1.98 0.66 3 1 C2.84207033 7.31718671 -0.67506862 10.80727176 -5 15 C-8 17 -8 17 -12 17 C-9.86979901 9.54429652 -6.29344083 4.41879888 0 0 Z " fill="#F2F2F2" transform="translate(265,224)"/>
<path d="M0 0 C0.66 0 1.32 0 2 0 C3.00218061 2.3115773 4.00183658 4.62418884 5 6.9375 C5.28617188 7.59685547 5.57234375 8.25621094 5.8671875 8.93554688 C8 13.88671875 8 13.88671875 8 15 C3.38 15 -1.24 15 -6 15 C-4.02 10.05 -2.04 5.1 0 0 Z " fill="#F6F5F2" transform="translate(1096,320)"/>
<path d="M0 0 C9.87355719 0.62381952 9.87355719 0.62381952 14 4 C16.33287288 7.22158636 16.17683757 10.10957355 16 14 C14.03533587 15.06775224 12.03144641 16.06553465 10 17 C9.34 16.67 8.68 16.34 8 16 C8.66 15.34 9.32 14.68 10 14 C9.67673447 10.40320934 9.67673447 10.40320934 9 7 C5.7 6.34 2.4 5.68 -1 5 C-1 2 -1 2 0 0 Z " fill="#353132" transform="translate(1026,310)"/>
<path d="M0 0 C0.99 0 1.98 0 3 0 C3.66 1.32 4.32 2.64 5 4 C0.38 8.62 -4.24 13.24 -9 18 C-9.99 17.01 -10.98 16.02 -12 15 C-11.54625 14.4225 -11.0925 13.845 -10.625 13.25 C-8.98293885 11.1343376 -8.98293885 11.1343376 -8.125 9.0625 C-6.55895941 6.19142558 -4.35917146 4.24121288 -2 2 C-1.34 1.34 -0.68 0.68 0 0 Z " fill="#252122" transform="translate(900,391)"/>
<path d="M0 0 C0.99 0 1.98 0 3 0 C2.86120413 5.55183466 0.47006998 8.39161511 -3.14453125 12.296875 C-5.27316041 14.2507325 -7.18537081 15.31766565 -10 16 C-9.81976839 8.79073549 -4.79189393 4.79189393 0 0 Z " fill="#F6F5F2" transform="translate(759,186)"/>
<path d="M0 0 C1.59584307 2.10361131 2.04496656 3.30301826 1.875 5.9375 C0.66287385 8.79465451 -0.83903652 10.7772947 -3 13 C-4.32 13 -5.64 13 -7 13 C-5.125 6.25 -5.125 6.25 -4 4 C-4.99 3.67 -5.98 3.34 -7 3 C-7.66 4.32 -8.32 5.64 -9 7 C-9.99 6.67 -10.98 6.34 -12 6 C-5.66133109 -1.8399326 -5.66133109 -1.8399326 0 0 Z " fill="#302D2E" transform="translate(650,81)"/>
<path d="M0 0 C2.8339528 3.50414434 5.57694879 7.05908048 8.25 10.6875 C8.95640625 11.64011719 9.6628125 12.59273438 10.390625 13.57421875 C12 16 12 16 12 18 C9.765625 18.30078125 9.765625 18.30078125 7 18 C4.796875 15.91796875 4.796875 15.91796875 2.75 13.1875 C1.72132812 11.84751953 1.72132812 11.84751953 0.671875 10.48046875 C-1 8 -1 8 -2 5 C-1.34 5 -0.68 5 0 5 C0 3.35 0 1.7 0 0 Z " fill="#2A2627" transform="translate(1172,332)"/>
<path d="M0 0 C0 0.66 0 1.32 0 2 C6.27 2 12.54 2 19 2 C19 2.33 19 2.66 19 3 C12.73 3 6.46 3 0 3 C-0.99 5.97 -1.98 8.94 -3 12 C-4 13 -4 13 -6.5625 13.0625 C-7.366875 13.041875 -8.17125 13.02125 -9 13 C-7.69045524 8.76916309 -6.16145284 4.872603 -4 1 C-2 0 -2 0 0 0 Z " fill="#413F40" transform="translate(1087,337)"/>
<path d="M0 0 C1.41564834 2.83129669 1.24224495 4.85081562 1 8 C-0.5 11.375 -0.5 11.375 -2 14 C-3.5 12.6875 -3.5 12.6875 -5 11 C-5 10.01 -5 9.02 -5 8 C-6.9375006 5.81222534 -6.9375006 5.81222534 -9 4 C-4.5 0 -4.5 0 0 0 Z " fill="#2F2C2D" transform="translate(1099,53)"/>
<path d="M0 0 C0.99 0.66 1.98 1.32 3 2 C3.99 1.34 4.98 0.68 6 0 C6.99 0 7.98 0 9 0 C7.6302836 3.99500618 5.74277578 6.80009492 3 10 C0 9 0 9 -2 7 C-2.99 7 -3.98 7 -5 7 C-3.35 4.69 -1.7 2.38 0 0 Z " fill="#2E2B2C" transform="translate(276,104)"/>
<path d="M0 0 C-0.125 3.3125 -0.125 3.3125 -1 7 C-3.95781845 9.10333756 -5.72451182 10.16782739 -9.375 9.6875 C-9.91125 9.460625 -10.4475 9.23375 -11 9 C-9.82596494 5.65851561 -8.84565166 3.18896282 -6 1 C-3.87733361 0.29244454 -2.23416175 0 0 0 Z " fill="#221E1F" transform="translate(203,97)"/>
<path d="M0 0 C0.44041451 5.28497409 0.44041451 5.28497409 0 8 C-2.5 10.5 -2.5 10.5 -5 12 C-5.33 10.68 -5.66 9.36 -6 8 C-6.66 8 -7.32 8 -8 8 C-7.49396008 5.83125748 -7.00016187 4.00032373 -6 2 C-3.85118612 0.75230162 -2.50320403 0 0 0 Z " fill="#231F20" transform="translate(96,317)"/>
<path d="M0 0 C0.66 0.99 1.32 1.98 2 3 C3.25724788 4.42874646 3.25724788 4.42874646 7 5 C5.35 7.31 3.7 9.62 2 12 C1.01 11.01 0.02 10.02 -1 9 C-2.32 9 -3.64 9 -5 9 C-3.7508258 5.54074837 -2.32472205 2.85306797 0 0 Z " fill="#2E2B2C" transform="translate(884,98)"/>
<path d="M0 0 C0 3 0 3 -2 6 C-0.68 6 0.64 6 2 6 C2 5.34 2 4.68 2 4 C2.99 4.33 3.98 4.66 5 5 C4.07347299 6.17539996 3.13336613 7.34010577 2.1875 8.5 C1.66542969 9.1496875 1.14335938 9.799375 0.60546875 10.46875 C-1 12 -1 12 -4 12 C-4 11.01 -4 10.02 -4 9 C-4.66 9 -5.32 9 -6 9 C-6 5 -6 5 -4.6875 3.515625 C-3.125 2.34375 -1.5625 1.171875 0 0 Z " fill="#322F30" transform="translate(869,215)"/>
<path d="M0 0 C1.56073255 2.34109882 2.86373867 4.56333403 4.125 7.0625 C4.47820312 7.75472656 4.83140625 8.44695312 5.1953125 9.16015625 C6 11 6 11 6 13 C4.35 13 2.7 13 1 13 C-0.60959705 10.41566689 -2.05082907 7.90113827 -3 5 C-1.75 2 -1.75 2 0 0 Z " fill="#343132" transform="translate(1110,337)"/>
<path d="M0 0 C0.66 0.66 1.32 1.32 2 2 C1.01 2.495 1.01 2.495 0 3 C1.00016187 6.0004856 2.3372974 8.32521756 4 11 C3.01 11.66 2.02 12.32 1 13 C0.67 12.01 0.34 11.02 0 10 C-2.31 9.67 -4.62 9.34 -7 9 C-5.44499019 5.18315774 -2.96404505 2.80804268 0 0 Z " fill="#2D2A2B" transform="translate(1039,112)"/>
<path d="M0 0 C1.70840281 1.63412443 2.93453047 2.86906094 4 5 C4.039992 6.99960012 4.04346799 9.00047242 4 11 C3.01 11 2.02 11 1 11 C0.01 12.485 0.01 12.485 -1 14 C-1.66 13.34 -2.32 12.68 -3 12 C-2.67 11.67 -2.34 11.34 -2 11 C-1.92851801 9.64756083 -1.91600546 8.29165633 -1.9375 6.9375 C-1.958125 5.638125 -1.97875 4.33875 -2 3 C-1.34 3 -0.68 3 0 3 C0 2.01 0 1.02 0 0 Z " fill="#413E3F" transform="translate(1178,313)"/>
<path d="M0 0 C0 3 0 3 -2.00390625 5.12109375 C-3.70977306 6.6654892 -5.41811116 8.20715936 -7.12890625 9.74609375 C-7.74636719 10.48988281 -8.36382812 11.23367187 -9 12 C-8.67 13.32 -8.34 14.64 -8 16 C-10.97 16.33 -13.94 16.66 -17 17 C-11.33333333 11.33333333 -5.66666667 5.66666667 0 0 Z " fill="#333031" transform="translate(475,155)"/>
<path d="M0 0 C4.68322981 1.44099379 4.68322981 1.44099379 6.0625 3.875 C6 6 6 6 4.0625 8.25 C3.381875 8.8275 2.70125 9.405 2 10 C1.67 8.35 1.34 6.7 1 5 C0.01 5.495 0.01 5.495 -1 6 C-2.98 6.99 -2.98 6.99 -5 8 C-3.35 5.36 -1.7 2.72 0 0 Z " fill="#302D2E" transform="translate(286,90)"/>
<path d="M0 0 C0.99 0.33 1.98 0.66 3 1 C3 2.32 3 3.64 3 5 C1.6696875 5.3403125 1.6696875 5.3403125 0.3125 5.6875 C-3.43380532 7.17188513 -5.33729434 9.02403485 -8 12 C-8.66 11.67 -9.32 11.34 -10 11 C-6.7 7.37 -3.4 3.74 0 0 Z " fill="#262122" transform="translate(98,350)"/>
<path d="M0 0 C1.21073297 3.6321989 1.11868248 5.34563723 0 9 C-3.0625 11.375 -3.0625 11.375 -6 13 C-6.66 12.67 -7.32 12.34 -8 12 C-5.36 8.04 -2.72 4.08 0 0 Z " fill="#302C2D" transform="translate(247,145)"/>
<path d="M0 0 C0.66 0.33 1.32 0.66 2 1 C1.67 1.66 1.34 2.32 1 3 C1.66 3.66 2.32 4.32 3 5 C2.01 5.66 1.02 6.32 0 7 C-1.19232613 9.05003955 -1.19232613 9.05003955 -2 11 C-2 10.01 -2 9.02 -2 8 C-3.32 8.33 -4.64 8.66 -6 9 C-5.52797514 4.75177626 -3.03344482 2.80010291 0 0 Z " fill="#353233" transform="translate(1288,310)"/>
<path d="M0 0 C0.66 0.33 1.32 0.66 2 1 C0.64531705 5.87685861 -1.71675909 7.48592381 -6 10 C-6.66 9.01 -7.32 8.02 -8 7 C-7.21625 6.7525 -6.4325 6.505 -5.625 6.25 C-2.64259316 4.82980627 -2.1589951 3.99407067 -1 1 C-0.67 0.67 -0.34 0.34 0 0 Z " fill="#231F20" transform="translate(96,355)"/>
<path d="M0 0 C-0.875 6.875 -0.875 6.875 -2 8 C-3.66617115 8.04063832 -5.33388095 8.042721 -7 8 C-5.52631579 2.35087719 -5.52631579 2.35087719 -2.9375 0.625 C-1 0 -1 0 0 0 Z " fill="#333031" transform="translate(1085,342)"/>
<path d="M0 0 C3.1875 0.3125 3.1875 0.3125 6 1 C1.22454416 4.7874305 -2.13869036 5.11799367 -8.1875 5.0625 C-9.45980469 5.05347656 -10.73210938 5.04445312 -12.04296875 5.03515625 C-13.50669922 5.01775391 -13.50669922 5.01775391 -15 5 C-15 4.67 -15 4.34 -15 4 C-14.16855469 3.96261719 -13.33710937 3.92523438 -12.48046875 3.88671875 C-11.39378906 3.82097656 -10.30710937 3.75523437 -9.1875 3.6875 C-8.10855469 3.62949219 -7.02960937 3.57148438 -5.91796875 3.51171875 C-2.71016047 2.94917138 -2.10604938 2.30662551 0 0 Z " fill="#4F4D4E" transform="translate(838,226)"/>
<path d="M0 0 C3.26460973 1.80412643 4.88929795 2.83394693 7 6 C6.01 6.99 5.02 7.98 4 9 C1.5 7.1875 1.5 7.1875 -1 5 C-1 2 -1 2 0 0 Z " fill="#2D2A2B" transform="translate(199,213)"/>
<path d="M0 0 C0.99 0.33 1.98 0.66 3 1 C2.34 1 1.68 1 1 1 C1 1.99 1 2.98 1 4 C2.32 3.67 3.64 3.34 5 3 C4.67 4.65 4.34 6.3 4 8 C2.35 8.33 0.7 8.66 -1 9 C-2.25541557 5.23375329 -1.37061958 3.62811066 0 0 Z " fill="#231F20" transform="translate(248,145)"/>
<path d="M0 0 C0.99 0.33 1.98 0.66 3 1 C1.66666667 4.33333333 0.33333333 7.66666667 -1 11 C-2.625 9.375 -2.625 9.375 -4 7 C-3.3125 3.8125 -3.3125 3.8125 -2 1 C-1.34 0.67 -0.68 0.34 0 0 Z " fill="#221F20" transform="translate(913,375)"/>
<path d="M0 0 C0.33 0 0.66 0 1 0 C1 1.98 1 3.96 1 6 C0.0409375 6.37125 0.0409375 6.37125 -0.9375 6.75 C-1.618125 7.1625 -2.29875 7.575 -3 8 C-3.12375 8.66 -3.2475 9.32 -3.375 10 C-3.58125 10.66 -3.7875 11.32 -4 12 C-7.0625 13.25 -7.0625 13.25 -10 14 C-9.61328125 13.49210937 -9.2265625 12.98421875 -8.828125 12.4609375 C-6.3565724 9.19408332 -3.91667921 5.93836498 -1.6875 2.5 C-1.130625 1.675 -0.57375 0.85 0 0 Z " fill="#322F30" transform="translate(121,320)"/>
<path d="M0 0 C0.66 0.33 1.32 0.66 2 1 C-7.65517241 12.82758621 -7.65517241 12.82758621 -14 16 C-12.34136495 11.67495164 -9.128959 8.90581175 -5.875 5.75 C-5.31167969 5.19570313 -4.74835938 4.64140625 -4.16796875 4.0703125 C-2.78313972 2.70895515 -1.39216796 1.35385141 0 0 Z " fill="#E3E2E2" transform="translate(164,281)"/>
<path d="M0 0 C1.98 0.66 3.96 1.32 6 2 C5.67 2.99 5.34 3.98 5 5 C4.01 5 3.02 5 2 5 C1.34 6.32 0.68 7.64 0 9 C-1.10844919 5.67465243 -0.84454356 3.37817425 0 0 Z " fill="#221E1F" transform="translate(427,240)"/>
<path d="M0 0 C2.9375 1.3125 2.9375 1.3125 6 3 C6.33 3.99 6.66 4.98 7 6 C5.68 6.99 4.36 7.98 3 9 C1 7 1 7 0.875 4.375 C0.91625 3.59125 0.9575 2.8075 1 2 C0.34 1.67 -0.32 1.34 -1 1 C-0.67 0.67 -0.34 0.34 0 0 Z " fill="#302D2E" transform="translate(78,373)"/>
<path d="M0 0 C3.465 1.485 3.465 1.485 7 3 C6.67 3.99 6.34 4.98 6 6 C4.35 6 2.7 6 1 6 C-0.0625 4.125 -0.0625 4.125 -1 2 C-0.67 1.34 -0.34 0.68 0 0 Z " fill="#262223" transform="translate(546,58)"/>
<path d="M0 0 C1.65 0 3.3 0 5 0 C5.33 1.32 5.66 2.64 6 4 C4.68 4.99 3.36 5.98 2 7 C0 4 0 4 0 0 Z " fill="#332F30" transform="translate(1280,339)"/>
<path d="M0 0 C-0.33 0.99 -0.66 1.98 -1 3 C-1.763125 2.814375 -2.52625 2.62875 -3.3125 2.4375 C-6.08967375 1.77180827 -6.08967375 1.77180827 -9 3 C-8.67 1.68 -8.34 0.36 -8 -1 C-4.59745511 -2.2151946 -3.06748874 -1.86240388 0 0 Z " fill="#231F20" transform="translate(152,146)"/>
<path d="M0 0 C-0.33 0.78375 -0.66 1.5675 -1 2.375 C-2.11866511 4.84332497 -2.11866511 4.84332497 -2 7 C-2.99 7.33 -3.98 7.66 -5 8 C-5.66 6.68 -6.32 5.36 -7 4 C-3.375 0 -3.375 0 0 0 Z " fill="#221F20" transform="translate(758,83)"/>
<path d="M0 0 C0.66 0.33 1.32 0.66 2 1 C1.34 2.65 0.68 4.3 0 6 C-0.7425 5.979375 -1.485 5.95875 -2.25 5.9375 C-4.70462279 5.99328688 -6.66109261 6.3069904 -9 7 C-6.03716687 4.61327331 -3.05729491 2.2646629 0 0 Z " fill="#2F2C2D" transform="translate(123,294)"/>
<path d="M0 0 C1.32 0.33 2.64 0.66 4 1 C2.625 2.5 2.625 2.5 1 4 C0.34 4 -0.32 4 -1 4 C-1.103125 4.78375 -1.20625 5.5675 -1.3125 6.375 C-2 9 -2 9 -5 11 C-3.77472971 6.94718288 -2.30119506 3.55639236 0 0 Z " fill="#353334" transform="translate(28,390)"/>
<path d="M0 0 C0.99 0.33 1.98 0.66 3 1 C4.1875 3.5625 4.1875 3.5625 5 6 C2.625 6.1875 2.625 6.1875 0 6 C-0.66 5.01 -1.32 4.02 -2 3 C-1.34 2.01 -0.68 1.02 0 0 Z " fill="#383636" transform="translate(1179,344)"/>
<path d="M0 0 C3.875 4.75 3.875 4.75 5 7 C4.34 7.66 3.68 8.32 3 9 C0.9375 8.8125 0.9375 8.8125 -1 8 C-1.33 7.01 -1.66 6.02 -2 5 C-1.34 5 -0.68 5 0 5 C0 3.35 0 1.7 0 0 Z " fill="#373435" transform="translate(1172,332)"/>
<path d="M0 0 C0.33 0.66 0.66 1.32 1 2 C0.34 2 -0.32 2 -1 2 C-1.33 3.98 -1.66 5.96 -2 8 C-3.32 8.33 -4.64 8.66 -6 9 C-6.375 6.75 -6.375 6.75 -6 4 C-3 1.6875 -3 1.6875 0 0 Z " fill="#221F20" transform="translate(259,133)"/>
<path d="M0 0 C1.32 0 2.64 0 4 0 C4 1.98 4 3.96 4 6 C3.01 6.33 2.02 6.66 1 7 C0.01 5.35 -0.98 3.7 -2 2 C-1.34 2 -0.68 2 0 2 C0 1.34 0 0.68 0 0 Z " fill="#252223" transform="translate(1106,335)"/>
<path d="M0 0 C0.66 0.33 1.32 0.66 2 1 C1.01 3.97 0.02 6.94 -1 10 C-1.99 9.67 -2.98 9.34 -4 9 C-2.94124926 5.59687262 -1.99097846 2.98646769 0 0 Z " fill="#312E2F" transform="translate(740,195)"/>
<path d="M0 0 C1.32 0.66 2.64 1.32 4 2 C4 2.99 4 3.98 4 5 C2.1875 5.6875 2.1875 5.6875 0 6 C-1.75 4.5625 -1.75 4.5625 -3 3 C-2.34 3 -1.68 3 -1 3 C-0.67 2.01 -0.34 1.02 0 0 Z " fill="#353233" transform="translate(1299,311)"/>
<path d="M0 0 C0.99 0 1.98 0 3 0 C3.33 0.99 3.66 1.98 4 3 C3.34 3.66 2.68 4.32 2 5 C2.33 5.66 2.66 6.32 3 7 C1.35 6.67 -0.3 6.34 -2 6 C-1.49396008 3.83125748 -1.00016187 2.00032373 0 0 Z " fill="#211D1E" transform="translate(104,308)"/>
<path d="M0 0 C0.66 0 1.32 0 2 0 C2.66 2.31 3.32 4.62 4 7 C3.01 7.33 2.02 7.66 1 8 C0.01 7.34 -0.98 6.68 -2 6 C-1.34 4.02 -0.68 2.04 0 0 Z " fill="#211E1F" transform="translate(77,375)"/>
<path d="M0 0 C0.66 0 1.32 0 2 0 C2.36923077 5.53846154 2.36923077 5.53846154 0.5 7.875 C-0.2425 8.431875 -0.2425 8.431875 -1 9 C-2.0326802 6.21176345 -2.04509293 5.1322726 -1.0625 2.25 C-0.711875 1.5075 -0.36125 0.765 0 0 Z " fill="#302C2D" transform="translate(510,128)"/>
<path d="M0 0 C0.33 0.66 0.66 1.32 1 2 C-0.98 4.31 -2.96 6.62 -5 9 C-5.66 7.68 -6.32 6.36 -7 5 C-5.5459375 4.5978125 -5.5459375 4.5978125 -4.0625 4.1875 C-3.051875 3.795625 -2.04125 3.40375 -1 3 C-0.67 2.01 -0.34 1.02 0 0 Z " fill="#2E2A2B" transform="translate(82,207)"/>
<path d="M0 0 C0.99 0 1.98 0 3 0 C2.67 1.65 2.34 3.3 2 5 C0.02 5 -1.96 5 -4 5 C-2.1875 2.5 -2.1875 2.5 0 0 Z " fill="#231F21" transform="translate(132,154)"/>
<path d="M0 0 C1.32 0 2.64 0 4 0 C3.34 1.98 2.68 3.96 2 6 C1.01 6 0.02 6 -1 6 C-0.67 4.02 -0.34 2.04 0 0 Z " fill="#231F20" transform="translate(59,397)"/>
<path d="M0 0 C0.66 1.98 1.32 3.96 2 6 C0.68 6 -0.64 6 -2 6 C-2.66 5.34 -3.32 4.68 -4 4 C-4 3.01 -4 2.02 -4 1 C-2 0 -2 0 0 0 Z " fill="#242122" transform="translate(1286,318)"/>
<path d="M0 0 C1.9375 0.3125 1.9375 0.3125 4 1 C4.33 1.99 4.66 2.98 5 4 C3.35 4.33 1.7 4.66 0 5 C0 3.35 0 1.7 0 0 Z M-2 6 C-1.67 6.66 -1.34 7.32 -1 8 C-1.66 7.67 -2.32 7.34 -3 7 C-2.67 6.67 -2.34 6.34 -2 6 Z " fill="#2F2C2D" transform="translate(753,79)"/>
<path d="M0 0 C0.66 0.99 1.32 1.98 2 3 C-2.75 6 -2.75 6 -5 6 C-4.1875 3.5625 -4.1875 3.5625 -3 1 C-2.01 0.67 -1.02 0.34 0 0 Z " fill="#2E2A2B" transform="translate(235,71)"/>
<path d="M0 0 C0 0.99 0 1.98 0 3 C0.99 3.33 1.98 3.66 3 4 C0.69 4.66 -1.62 5.32 -4 6 C-4 4.35 -4 2.7 -4 1 C-2 0 -2 0 0 0 Z " fill="#3A3738" transform="translate(1034,327)"/>
<path d="M0 0 C0.66 0.33 1.32 0.66 2 1 C1.01 2.175625 1.01 2.175625 0 3.375 C-2.20201441 5.71512812 -2.20201441 5.71512812 -2 8 C-3.98 8 -5.96 8 -8 8 C-5.33333333 5.33333333 -2.66666667 2.66666667 0 0 Z " fill="#363233" transform="translate(866,201)"/>
<path d="M0 0 C0.33 0 0.66 0 1 0 C1.33 1.98 1.66 3.96 2 6 C-2.75 8.875 -2.75 8.875 -5 10 C-3.66654496 6.40992874 -2.1056769 3.20429093 0 0 Z " fill="#373435" transform="translate(891,87)"/>
<path d="M0 0 C1.65 0 3.3 0 5 0 C4.34 1.32 3.68 2.64 3 4 C1.35 4 -0.3 4 -2 4 C-1.34 2.68 -0.68 1.36 0 0 Z " fill="#211E1F" transform="translate(1290,310)"/>
<path d="M0 0 C0 0.99 0 1.98 0 3 C-0.66 2.67 -1.32 2.34 -2 2 C-1.34 1.34 -0.68 0.68 0 0 Z M-4 3 C-3.34 3.33 -2.68 3.66 -2 4 C-3.65 5.65 -5.3 7.3 -7 9 C-7.66 8.34 -8.32 7.68 -9 7 C-7.35 5.68 -5.7 4.36 -4 3 Z " fill="#333232" transform="translate(325,208)"/>
<path d="M0 0 C-0.33 1.65 -0.66 3.3 -1 5 C-1.99 5 -2.98 5 -4 5 C-4 4.34 -4 3.68 -4 3 C-4.66 2.67 -5.32 2.34 -6 2 C-2.25 0 -2.25 0 0 0 Z " fill="#322F30" transform="translate(764,175)"/>
<path d="M0 0 C0.99 0.33 1.98 0.66 3 1 C1.02 3.97 1.02 3.97 -1 7 C-1.99 6.67 -2.98 6.34 -4 6 C-2.68 4.02 -1.36 2.04 0 0 Z " fill="#322F30" transform="translate(840,127)"/>
<path d="M0 0 C0.66 0.66 1.32 1.32 2 2 C-0.3125 4.5 -0.3125 4.5 -3 7 C-3.99 7 -4.98 7 -6 7 C-4.02 4.69 -2.04 2.38 0 0 Z " fill="#3E3B3C" transform="translate(94,354)"/>
<path d="M0 0 C1.98 0 3.96 0 6 0 C5.67 1.32 5.34 2.64 5 4 C3.35 3.67 1.7 3.34 0 3 C0 2.01 0 1.02 0 0 Z " fill="#211E1F" transform="translate(1291,346)"/>
<path d="M0 0 C1.5 1.375 1.5 1.375 3 3 C3 3.66 3 4.32 3 5 C1.35 5.33 -0.3 5.66 -2 6 C-2 5.01 -2 4.02 -2 3 C-1.34 3 -0.68 3 0 3 C0 2.01 0 1.02 0 0 Z " fill="#393637" transform="translate(1178,313)"/>
<path d="M0 0 C0.66 0 1.32 0 2 0 C2.33 1.98 2.66 3.96 3 6 C1.68 6 0.36 6 -1 6 C-0.67 4.02 -0.34 2.04 0 0 Z " fill="#201E1F" transform="translate(326,208)"/>
<path d="M0 0 C0.66 0 1.32 0 2 0 C2 0.66 2 1.32 2 2 C2.66 2.33 3.32 2.66 4 3 C3.34 3.66 2.68 4.32 2 5 C0.68 5 -0.64 5 -2 5 C-1.34 3.35 -0.68 1.7 0 0 Z " fill="#2E2A2B" transform="translate(122,168)"/>
<path d="M0 0 C0.33 0.99 0.66 1.98 1 3 C-0.4375 5.1875 -0.4375 5.1875 -2 7 C-2.66 6.01 -3.32 5.02 -4 4 C-2.68 2.68 -1.36 1.36 0 0 Z " fill="#322F30" transform="translate(605,155)"/>
<path d="M0 0 C0.66 0.33 1.32 0.66 2 1 C1.34 2.32 0.68 3.64 0 5 C-0.99 5 -1.98 5 -3 5 C-2.625 3.0625 -2.625 3.0625 -2 1 C-1.34 0.67 -0.68 0.34 0 0 Z " fill="#332F30" transform="translate(878,90)"/>
<path d="M0 0 C0.66 0 1.32 0 2 0 C0.70700306 2.88437779 -0.65941363 4.87219421 -3 7 C-3.66 6.34 -4.32 5.68 -5 5 C-3.33333333 3.33333333 -1.66666667 1.66666667 0 0 Z " fill="#2F2C2E" transform="translate(916,377)"/>
<path d="M0 0 C0.66 0.33 1.32 0.66 2 1 C1.6875 2.9375 1.6875 2.9375 1 5 C0.01 5.33 -0.98 5.66 -2 6 C-2.66 5.34 -3.32 4.68 -4 4 C-2.68 2.68 -1.36 1.36 0 0 Z " fill="#2E2B2C" transform="translate(197,98)"/>
<path d="M0 0 C-0.33 0.99 -0.66 1.98 -1 3 C-2.32 3 -3.64 3 -5 3 C-5.33 2.01 -5.66 1.02 -6 0 C-3.50907189 -1.24546405 -2.58919267 -0.7767578 0 0 Z " fill="#221E1F" transform="translate(237,70)"/>
<path d="M0 0 C0.99 0.33 1.98 0.66 3 1 C1.75453595 4.73639216 0.36595047 5.18756513 -3 7 C-1.125 1.125 -1.125 1.125 0 0 Z " fill="#373334" transform="translate(308,52)"/>
<path d="M0 0 C0.99 0.33 1.98 0.66 3 1 C3.6875 3.0625 3.6875 3.0625 4 5 C2.35 4.67 0.7 4.34 -1 4 C-1 1 -1 1 0 0 Z " fill="#242122" transform="translate(278,29)"/>
</svg>
