<?xml version="1.0" encoding="UTF-8"?>
<svg xmlns="http://www.w3.org/2000/svg" viewBox="0 0 487.99 173.11">
  <defs>
    <style>.cls-1{fill:#161615;}</style>
  </defs>
  <g id="Capa_2" data-name="Capa 2">
    <g id="Capa_1-2" data-name="Capa 1">
      <polygon class="cls-1" points="175.95 162.98 170.28 155.45 166.78 155.45 166.78 172.83 170.39 172.83 170.39 161.37 175.64 168.39 176.11 168.39 181.36 161.63 181.36 172.83 184.97 172.83 184.97 155.45 181.47 155.45 175.95 162.98"></polygon>
      <path class="cls-1" d="M203.1,155.17a9,9,0,1,0,9.22,9A8.88,8.88,0,0,0,203.1,155.17Zm0,14.67a5.71,5.71,0,1,1,5.6-5.71A5.48,5.48,0,0,1,203.1,169.84Z"></path>
      <path class="cls-1" d="M227.12,158.32a3.94,3.94,0,0,1,3.71,2.59l2.94-1.33a6.78,6.78,0,0,0-6.65-4.41c-3.57,0-6,2.12-6,5.18,0,2.33,1.4,4,4.17,4.92l3.41,1.12c1,.35,1.54.91,1.54,1.72,0,1.12-1,1.85-2.43,1.85a4.82,4.82,0,0,1-4.36-3.06l-3,1.33a7.24,7.24,0,0,0,7.09,4.88c3.66,0,6.21-2.15,6.21-5.21,0-2.33-1.38-3.94-4.18-4.85L226.25,162c-1.05-.35-1.58-1-1.58-1.77C224.67,159.09,225.65,158.32,227.12,158.32Z"></path>
      <path class="cls-1" d="M247.05,155.45l-5.88,17.38h3.92l1.16-3.55h6.37l1.17,3.55h3.94l-5.88-17.38Zm.21,10.68,2.19-6.69,2.17,6.69Z"></path>
      <rect class="cls-1" x="265.88" y="155.45" width="3.62" height="17.38"></rect>
      <path class="cls-1" d="M287.2,158.43a4.38,4.38,0,0,1,4.24,2.92l3.2-1.54c-.91-2.57-3.69-4.64-7.44-4.64a9,9,0,0,0,0,17.94c3.75,0,6.53-2.08,7.44-4.65l-3.2-1.54a4.38,4.38,0,0,1-4.24,2.92c-3.08,0-5.16-2.31-5.16-5.71S284.12,158.43,287.2,158.43Z"></path>
      <path class="cls-1" d="M312,155.17a9,9,0,1,0,9.21,9A8.88,8.88,0,0,0,312,155.17Zm0,14.67a5.71,5.71,0,1,1,5.6-5.71A5.49,5.49,0,0,1,312,169.84Z"></path>
      <path class="cls-1" d="M293.28,84.32v.42A1.19,1.19,0,0,0,293.28,84.32Z"></path>
      <path class="cls-1" d="M75.26,32.58h0V85.05s-1.47,24.62,27.75,29V61.59S104.49,37,75.26,32.58Z"></path>
      <path class="cls-1" d="M253.28,61.74S254.91,37,225.53,32.58h0v81.57h0C254.91,109.74,253.28,85,253.28,85V61.74Z"></path>
      <path class="cls-1" d="M343.24,0h0V85.24s-1.48,24.61,27.75,29h0V29S372.47,4.4,343.24,0Z"></path>
      <polygon class="cls-1" points="451.61 32.59 451.61 32.59 451.61 32.59 451.61 32.59"></polygon>
      <polygon class="cls-1" points="451.61 32.58 451.6 32.58 451.61 32.59 451.61 32.58 451.61 32.58"></polygon>
      <path class="cls-1" d="M150.13,32.79v81.27a27.87,27.87,0,0,0,27.61-26.7h0c0-.1,0-.21,0-.32s0-.21,0-.31h0a27.83,27.83,0,0,0-26-26.6h26.06A27.88,27.88,0,0,0,150.13,32.79Z"></path>
      <path class="cls-1" d="M117.86,60h0v.12h0A27.81,27.81,0,0,0,140,86.73H117.85a27.87,27.87,0,0,0,27.65,27.33V32.79A27.86,27.86,0,0,0,117.86,60Z"></path>
      <path class="cls-1" d="M192.66,0V84.72s-1.5,24.93,28.1,29.38V29.38S222.26,4.45,192.66,0Z"></path>
      <circle class="cls-1" cx="88.43" cy="13.04" r="13.04"></circle>
      <circle class="cls-1" cx="398.99" cy="13.04" r="13.04"></circle>
      <path class="cls-1" d="M461,32.79v27h27A27.34,27.34,0,0,0,461,32.79Z"></path>
      <path class="cls-1" d="M300.64,32.63h0V85.1s-1.48,24.62,27.75,29V61.64S329.86,37,300.64,32.63Z"></path>
      <path class="cls-1" d="M0,0H0V85.24s-1.47,24.61,27.76,29V29S29.24,4.4,0,0Z"></path>
      <path class="cls-1" d="M32.52,32.58h0V85.05s-1.47,24.62,27.76,29V61.59S61.75,37,32.52,32.58Z"></path>
      <path class="cls-1" d="M268.14,85s-1.64,24.74,27.74,29.16h0V32.59h0C266.51,37,268.14,61.74,268.14,61.74V85Z"></path>
      <path class="cls-1" d="M385.84,32.68h0V85.16s-1.48,24.61,27.75,29V61.69S415.07,37.08,385.84,32.68Z"></path>
      <path class="cls-1" d="M428.44,0h0V85.24s-1.48,24.61,27.75,29h0V29S457.67,4.4,428.44,0Z"></path>
    </g>
  </g>
</svg>
