<?xml version="1.0" encoding="utf-8"?>
<!-- Generator: Adobe Illustrator 16.0.0, SVG Export Plug-In . SVG Version: 6.00 Build 0)  -->
<!DOCTYPE svg PUBLIC "-//W3C//DTD SVG 1.1//EN" "http://www.w3.org/Graphics/SVG/1.1/DTD/svg11.dtd">
<svg version="1.1" id="Capa_1" xmlns="http://www.w3.org/2000/svg" xmlns:xlink="http://www.w3.org/1999/xlink" x="0px" y="0px"
	 width="484.955px" height="81.384px" viewBox="0 0 484.955 81.384" enable-background="new 0 0 484.955 81.384"
	 xml:space="preserve">
<g>
	<polygon fill="#20201E" points="0,41.376 8.518,41.376 8.518,11.942 59.805,43 59.805,1.886 51.288,1.886 51.288,31.059 0,0 
		0,41.376 	"/>
	<path fill-rule="evenodd" clip-rule="evenodd" fill="#20201E" d="M131.081,33.102L138.874,43h9.152L115.404,1.833L82.784,43h9.152
		l7.793-9.898H131.081L131.081,33.102z M127.547,28.597h-24.285l12.142-15.974L127.547,28.597L127.547,28.597z"/>
	<polygon fill="#20201E" points="185.617,8.014 201.837,8.014 201.837,3.509 160.88,3.509 160.88,8.014 177.1,8.014 177.1,43 
		185.617,43 185.617,8.014 	"/>
	<path fill="#20201E" d="M226.571,2.671v24.983c0,8.694,9.333,15.346,25.009,15.346c15.676,0,25.01-6.651,25.01-15.346V2.671h-8.518
		v23.307c0,6.441-3.354,12.412-16.492,12.412c-13.139,0-16.492-5.971-16.492-12.412V2.671H226.571L226.571,2.671z"/>
	<path fill="#20201E" d="M353.881,4.504c-5.166-1.833-11.236-2.671-17.217-2.671c-20.117,0-36.336,9.113-36.336,20.792
		c0,11.418,16.129,20.374,35.611,20.374c5.98,0,12.686-0.995,17.941-2.776V34.41c-5.074,2.619-11.508,4.086-18.213,4.086
		c-15.225,0-26.822-7.385-26.822-16.027c0-8.747,11.689-16.131,27.002-16.131c6.434,0,13.141,1.361,18.033,3.875V4.504
		L353.881,4.504z"/>
	<polygon fill="#20201E" points="382.217,43 418.916,43 418.916,38.496 390.734,38.496 390.734,23.569 418.1,23.569 418.1,19.065 
		390.734,19.065 390.734,8.014 418.916,8.014 418.916,3.509 382.217,3.509 382.217,43 	"/>
	<path fill-rule="evenodd" clip-rule="evenodd" fill="#20201E" d="M463.391,25.821c9.877-0.681,16.4-5.395,16.4-11.051
		c0-3.771-3.262-7.489-8.971-9.428c-5.438-1.78-11.961-1.833-18.033-1.833h-10.328V43h8.518V26.293h3.533L474.627,43h10.328
		L463.391,25.821L463.391,25.821z M450.977,7.909h2.264c8.428,0,18.576,0.891,18.576,7.071c0,6.285-9.424,7.228-18.123,7.228h-2.717
		V7.909L450.977,7.909z"/>
</g>
<g>
	<path fill="#20201E" d="M122.232,80.459c-0.52,0.177-1.058,0.338-1.612,0.484c-1.179,0.293-2.271,0.44-3.276,0.44
		c-2.895,0-5.278-0.748-7.15-2.244c-1.89-1.496-2.834-3.41-2.834-5.742c0-2.288,0.944-4.188,2.834-5.698
		c1.872-1.525,4.229-2.288,7.072-2.288c0.971,0,2.002,0.118,3.094,0.353c0.572,0.117,1.113,0.257,1.625,0.418
		c0.511,0.161,1.035,0.359,1.573,0.594v1.958c-0.659-0.337-1.248-0.598-1.768-0.781c-0.52-0.183-1.049-0.348-1.586-0.495
		c-0.988-0.278-2.045-0.418-3.172-0.418c-1.092,0-2.08,0.154-2.964,0.462c-0.884,0.309-1.69,0.764-2.418,1.364
		c-1.439,1.218-2.158,2.729-2.158,4.532c0,1.892,0.702,3.418,2.106,4.576c1.438,1.188,3.276,1.782,5.512,1.782
		c1.248,0,2.383-0.162,3.406-0.484c0.537-0.161,1.057-0.341,1.56-0.539c0.502-0.198,1.066-0.443,1.69-0.737v1.826
		C123.263,80.071,122.751,80.283,122.232,80.459z"/>
	<path fill="#20201E" d="M126.392,81.186V65.609h10.348v1.518h-8.32v5.456h8.086v1.519h-8.086v5.544h8.502v1.54H126.392z"/>
	<path fill="#20201E" d="M152.366,81.186l-3.224-4.246c-0.312-0.425-0.616-0.817-0.91-1.177c-0.295-0.359-0.598-0.686-0.91-0.979
		c-0.277-0.249-0.62-0.447-1.027-0.594s-0.897-0.22-1.469-0.22h-2.392v7.216h-2.028V65.609h4.81c0.971,0,1.837,0.085,2.6,0.253
		c0.763,0.169,1.421,0.437,1.976,0.803c1.126,0.734,1.69,1.782,1.69,3.146c0,1.026-0.364,1.87-1.092,2.53
		c-0.607,0.527-1.266,0.909-1.976,1.144c0.19,0.117,0.381,0.264,0.572,0.44c0.19,0.176,0.39,0.389,0.598,0.638
		c0.277,0.322,0.537,0.638,0.78,0.946c0.243,0.308,0.485,0.615,0.728,0.924l3.666,4.752H152.366z M148.285,67.854
		c-0.763-0.484-1.794-0.727-3.094-0.727h-2.756v5.347h2.626c1.386,0,2.453-0.234,3.198-0.704c0.728-0.44,1.092-1.101,1.092-1.98
		C149.351,68.924,148.995,68.279,148.285,67.854z"/>
	<path fill="#20201E" d="M171.944,81.186l-2.808-5.214h-8.242l-2.808,5.214h-2.158l8.502-15.687h1.17l8.45,15.687H171.944z
		 M165.002,68.338l-3.302,6.115h6.604L165.002,68.338z M166.191,63.97h-0.986l1.972-2.529h1.939L166.191,63.97z"/>
	<path fill="#20201E" d="M192.744,81.186v-12.87l-6.422,6.732l-6.422-6.732v12.87h-2.028V65.609h1.846l6.604,6.82l6.578-6.82h1.872
		v15.576H192.744z"/>
	<path fill="#20201E" d="M199.166,81.186V65.609h2.002v15.576H199.166z"/>
	<path fill="#20201E" d="M219.888,80.459c-0.52,0.177-1.058,0.338-1.612,0.484c-1.179,0.293-2.271,0.44-3.276,0.44
		c-2.895,0-5.278-0.748-7.15-2.244c-1.89-1.496-2.834-3.41-2.834-5.742c0-2.288,0.944-4.188,2.834-5.698
		c1.872-1.525,4.229-2.288,7.072-2.288c0.971,0,2.002,0.118,3.094,0.353c0.572,0.117,1.113,0.257,1.625,0.418
		c0.511,0.161,1.035,0.359,1.573,0.594v1.958c-0.659-0.337-1.248-0.598-1.768-0.781c-0.52-0.183-1.049-0.348-1.586-0.495
		c-0.988-0.278-2.045-0.418-3.172-0.418c-1.092,0-2.08,0.154-2.964,0.462c-0.884,0.309-1.69,0.764-2.418,1.364
		c-1.439,1.218-2.158,2.729-2.158,4.532c0,1.892,0.702,3.418,2.106,4.576c1.438,1.188,3.276,1.782,5.512,1.782
		c1.248,0,2.383-0.162,3.406-0.484c0.537-0.161,1.057-0.341,1.56-0.539c0.502-0.198,1.066-0.443,1.69-0.737v1.826
		C220.918,80.071,220.407,80.283,219.888,80.459z"/>
	<path fill="#20201E" d="M239.075,81.186l-2.808-5.214h-8.242l-2.808,5.214h-2.158l8.502-15.687h1.17l8.45,15.687H239.075z
		 M232.133,68.338l-3.302,6.115h6.604L232.133,68.338z"/>
	<path fill="#20201E" d="M269.156,81.186l-12.974-12.672v12.672h-2.028V65.609h1.638c1.179,1.188,2.323,2.332,3.433,3.432
		c1.108,1.101,2.235,2.186,3.38,3.257c1.04,0.968,2.071,1.95,3.094,2.947c1.022,0.998,2.054,2.017,3.094,3.059V65.609h2.028v15.576
		H269.156z"/>
	<path fill="#20201E" d="M290.606,81.186l-2.808-5.214h-8.242l-2.809,5.214h-2.157l8.502-15.687h1.17l8.45,15.687H290.606z
		 M283.664,68.338l-3.302,6.115h6.604L283.664,68.338z"/>
	<path fill="#20201E" d="M298.459,67.127v14.059h-2.028V67.149h-6.655v-1.54h15.34v1.518H298.459z"/>
	<path fill="#20201E" d="M321.676,79.382c-1.421,1.334-3.285,2.002-5.59,2.002c-2.271,0-4.134-0.639-5.59-1.914
		c-1.439-1.276-2.158-2.934-2.158-4.973v-8.888h2.028v8.8c0,1.658,0.511,2.963,1.534,3.916c1.04,0.954,2.443,1.431,4.212,1.431
		c1.732,0,3.11-0.491,4.134-1.475c0.502-0.498,0.888-1.074,1.157-1.727c0.269-0.652,0.402-1.404,0.402-2.255v-8.69h2.028v8.778
		C323.834,76.411,323.114,78.076,321.676,79.382z"/>
	<path fill="#20201E" d="M339.929,81.186l-3.224-4.246c-0.312-0.425-0.615-0.817-0.91-1.177s-0.598-0.686-0.91-0.979
		c-0.277-0.249-0.62-0.447-1.026-0.594c-0.408-0.146-0.897-0.22-1.47-0.22h-2.392v7.216h-2.028V65.609h4.811
		c0.97,0,1.837,0.085,2.6,0.253c0.763,0.169,1.421,0.437,1.976,0.803c1.127,0.734,1.69,1.782,1.69,3.146
		c0,1.026-0.364,1.87-1.092,2.53c-0.607,0.527-1.266,0.909-1.977,1.144c0.19,0.117,0.382,0.264,0.572,0.44
		c0.19,0.176,0.39,0.389,0.598,0.638c0.277,0.322,0.537,0.638,0.78,0.946c0.243,0.308,0.485,0.615,0.729,0.924l3.666,4.752H339.929z
		 M335.847,67.854c-0.763-0.484-1.794-0.727-3.094-0.727h-2.756v5.347h2.626c1.387,0,2.452-0.234,3.198-0.704
		c0.728-0.44,1.092-1.101,1.092-1.98C336.913,68.924,336.558,68.279,335.847,67.854z"/>
	<path fill="#20201E" d="M361.352,81.186l-2.808-5.214h-8.242l-2.809,5.214h-2.157l8.502-15.687h1.17l8.45,15.687H361.352z
		 M354.409,68.338l-3.302,6.115h6.604L354.409,68.338z"/>
	<path fill="#20201E" d="M366.578,81.186V65.609h2.028v14.036h8.762v1.54H366.578z"/>
</g>
</svg>
