<?xml version="1.0" encoding="UTF-8"?>
<svg width="217px" height="31px" viewBox="0 0 217 31" version="1.1" xmlns="http://www.w3.org/2000/svg" xmlns:xlink="http://www.w3.org/1999/xlink">
    <title>D1BF8E0E-B58E-4A26-9CE9-EBCFC044E11D</title>
    <g id="DS-RECURSOS" stroke="none" stroke-width="1" fill="none" fill-rule="evenodd">
        <g id="DS-RECURSOS-CATALOGOS" transform="translate(-375.000000, -71.000000)" fill="#191732" fill-rule="nonzero">
            <g id="logo-ramon-soler-azul" transform="translate(375.000000, 71.000000)">
                <g id="Group" transform="translate(0.000000, 7.440000)">
                    <path d="M4.74408014,22.8670588 L0,22.8670588 L0,0.692941176 L4.74408014,0.692941176 L4.74408014,4.35563025 C6.05627251,1.58386555 7.97409214,0.197983193 10.5984769,0.197983193 C11.4059799,0.197983193 12.0116072,0.197983193 12.7181723,0.29697479 L12.920048,0.29697479 L12.920048,4.75159664 L12.7181723,4.75159664 C12.2134829,4.65260504 11.8097314,4.65260504 11.305042,4.65260504 C7.46940277,4.65260504 4.74408014,7.42436975 4.74408014,11.4830252 L4.74408014,22.8670588 Z" id="Path"></path>
                    <path d="M28.3635429,11.4830252 C27.5560399,11.9779832 25.9410339,12.3739496 23.7204007,12.8689076 C19.6828857,13.6608403 18.2697554,14.7497479 18.2697554,16.8285714 C18.2697554,18.907395 19.380072,19.7983193 21.9035189,19.7983193 C26.0419718,19.7983193 28.4644808,17.7194958 28.4644808,14.2547899 L28.4644808,11.4830252 L28.3635429,11.4830252 Z M20.8941402,23.4610084 C18.6735069,23.4610084 16.7556873,22.8670588 15.4434949,21.6791597 C14.1313025,20.4912605 13.4247374,18.907395 13.4247374,17.0265546 C13.4247374,14.6507563 14.3331783,12.9678992 16.0491222,11.78 C17.8660039,10.5921008 20.4903887,9.99815126 22.9128977,9.50319328 C26.5466612,8.8102521 28.4644808,8.41428571 28.4644808,6.43445378 C28.4644808,4.65260504 27.1522884,3.76168067 24.4269658,3.76168067 C22.5091462,3.76168067 21.2978917,4.05865546 20.4903887,4.65260504 C19.7838235,5.24655462 19.380072,6.13747899 19.2791342,7.62235294 L19.2791342,7.82033613 L14.535054,7.82033613 L14.535054,7.62235294 C14.6359919,5.34554622 15.5444328,3.46470588 17.0585009,2.17781513 C18.7744448,0.692941176 21.2978917,0 24.6288416,0 C30.1804247,0 33.1076231,2.67277311 33.1076231,7.72134454 L33.1076231,17.7194958 C33.1076231,19.6003361 33.4104367,19.8973109 34.016064,19.8973109 C34.1170018,19.8973109 34.2179397,19.8973109 34.5207533,19.8973109 L34.7226291,19.8973109 L34.7226291,22.8670588 L34.6216912,22.8670588 C33.8141882,23.065042 33.1076231,23.1640336 32.4010579,23.1640336 C31.1898034,23.1640336 30.3823004,22.9660504 29.7766732,22.3721008 C29.1710459,21.8771429 28.8682323,21.0852101 28.6663566,20.0952941 C26.9504127,22.2731092 24.3260279,23.4610084 20.8941402,23.4610084" id="Shape"></path>
                    <path d="M69.4452582,22.8670588 L64.701178,22.8670588 L64.701178,8.7112605 C64.701178,5.8405042 64.0955508,4.05865546 60.9664766,4.05865546 C57.9383404,4.05865546 55.9195829,6.13747899 55.9195829,9.30521008 L55.9195829,22.8670588 L51.1755027,22.8670588 L51.1755027,8.7112605 C51.1755027,5.8405042 50.5698755,4.05865546 47.4408014,4.05865546 C44.4126651,4.05865546 42.3939076,6.13747899 42.3939076,9.30521008 L42.3939076,22.8670588 L37.6498275,22.8670588 L37.6498275,0.692941176 L42.3939076,0.692941176 L42.3939076,3.16773109 C43.6051621,1.68285714 45.6239196,0.0989915966 48.9548695,0.0989915966 C51.9830057,0.0989915966 54.0017632,1.38588235 55.011142,3.76168067 C57.0298995,1.28689076 59.4524085,0.0989915966 62.3796069,0.0989915966 C64.701178,0.0989915966 66.4171219,0.791932773 67.6283764,2.07882353 C68.8396309,3.36571429 69.3443203,5.24655462 69.3443203,7.62235294 L69.3443203,22.8670588 L69.4452582,22.8670588 Z" id="Path"></path>
                    <path d="M84.0812501,3.95966387 C79.9427972,3.95966387 77.5202882,6.92941176 77.5202882,11.8789916 C77.5202882,16.8285714 79.9427972,19.7983193 84.0812501,19.7983193 C88.1187651,19.7983193 90.5412741,16.8285714 90.5412741,11.8789916 C90.5412741,6.83042017 88.1187651,3.95966387 84.0812501,3.95966387 M83.9803122,23.56 C77.0155988,23.56 72.5743323,18.907395 72.5743323,11.78 C72.5743323,8.31529412 73.583711,5.44453782 75.6024685,3.26672269 C77.6212261,1.08890756 80.5484244,0 83.9803122,0 C87.4122,0 90.2384605,1.08890756 92.3581558,3.26672269 C94.3769133,5.34554622 95.3862921,8.31529412 95.3862921,11.6810084 C95.3862921,15.1457143 94.3769133,18.1154622 92.3581558,20.1942857 C90.3393983,22.3721008 87.4122,23.56 83.9803122,23.56" id="Shape"></path>
                    <path d="M118.29919,22.8670588 L113.55511,22.8670588 L113.55511,8.7112605 C113.55511,7.22638655 113.252296,6.13747899 112.545731,5.34554622 C111.839166,4.45462185 110.728849,4.05865546 109.214781,4.05865546 C105.681955,4.05865546 103.360384,6.13747899 103.360384,9.30521008 L103.360384,22.8670588 L98.6163041,22.8670588 L98.6163041,0.692941176 L103.360384,0.692941176 L103.360384,3.16773109 C104.369763,1.88084034 106.590396,0.0989915966 110.627911,0.0989915966 C112.848545,0.0989915966 114.665426,0.692941176 116.078557,1.88084034 C117.592625,3.16773109 118.29919,5.14756303 118.29919,7.52336134 L118.29919,22.8670588 L118.29919,22.8670588 Z" id="Path"></path>
                    <path d="M131.622989,23.4610084 C128.392977,23.4610084 125.667655,22.6690756 123.850773,21.1842017 C122.134829,19.7983193 121.226388,17.8184874 121.12545,15.4426891 L121.12545,15.2447059 L125.86953,15.2447059 L125.86953,15.4426891 C126.071406,18.3134454 128.090164,19.7983193 131.622989,19.7983193 C135.458629,19.7983193 136.266132,18.1154622 136.266132,16.7295798 C136.266132,14.4527731 133.94456,13.9578151 131.320176,13.4628571 C131.017362,13.3638655 130.815486,13.3638655 130.512673,13.2648739 C128.695791,12.8689076 126.475158,12.3739496 124.759214,11.285042 C122.841394,10.1961345 121.932953,8.61226891 121.932953,6.53344538 C121.932953,4.55361345 122.740456,2.9697479 124.254524,1.78184874 C125.768593,0.59394958 127.989226,0 130.714548,0 C133.641747,0 136.064256,0.692941176 137.7802,2.07882353 C139.294268,3.36571429 140.202709,5.04857143 140.404584,7.12739496 L140.404584,7.32537815 L135.660504,7.32537815 L135.660504,7.12739496 C135.357691,5.64252101 134.550188,3.66268908 130.916424,3.66268908 C128.292039,3.66268908 126.979847,4.55361345 126.979847,6.23647059 C126.979847,8.11731092 128.796729,8.51327731 131.421114,9.00823529 C131.723927,9.10722689 132.127679,9.10722689 132.53143,9.20621849 C134.752063,9.70117647 136.871759,10.1961345 138.486765,11.285042 C140.404584,12.4729412 141.313025,14.1557983 141.313025,16.432605 C141.313025,18.6104202 140.404584,20.3922689 138.789578,21.5801681 C136.972697,22.8670588 134.550188,23.4610084 131.622989,23.4610084" id="Path"></path>
                    <path d="M154.334011,3.95966387 C150.195558,3.95966387 147.773049,6.92941176 147.773049,11.8789916 C147.773049,16.8285714 150.195558,19.7983193 154.334011,19.7983193 C158.371526,19.7983193 160.794035,16.8285714 160.794035,11.8789916 C160.794035,6.83042017 158.371526,3.95966387 154.334011,3.95966387 M154.233073,23.56 C147.26836,23.56 142.827093,18.907395 142.827093,11.78 C142.827093,8.31529412 143.836472,5.44453782 145.85523,3.26672269 C147.873987,1.08890756 150.801186,0 154.233073,0 C157.664961,0 160.491222,1.08890756 162.610917,3.26672269 C164.629675,5.34554622 165.639053,8.31529412 165.639053,11.6810084 C165.639053,15.1457143 164.629675,18.1154622 162.610917,20.1942857 C160.592159,22.3721008 157.664961,23.56 154.233073,23.56" id="Shape"></path>
                </g>
                <rect id="Rectangle" x="168.207101" y="0" width="5.13609467" height="31"></rect>
                <g id="Group" transform="translate(175.911243, 7.440000)">
                    <path d="M4.84584854,9.40420168 L17.2633354,9.40420168 C17.1623802,6.13747899 14.739456,3.76168067 11.2060247,3.76168067 C7.67259352,3.86067227 5.14871407,6.03848739 4.84584854,9.40420168 M11.3069799,23.56 C7.87450387,23.56 4.94680372,22.3721008 2.92770016,20.1942857 C1.00955178,18.1154622 0,15.1457143 0,11.78 C0,8.31529412 1.00955178,5.44453782 3.02865534,3.26672269 C5.04775889,1.08890756 7.87450387,0 11.3069799,0 C14.6385008,0 17.4652458,1.08890756 19.282439,3.0687395 C21.0996322,5.04857143 22.109184,7.91932773 22.109184,11.285042 C22.109184,11.8789916 22.109184,12.5719328 22.109184,12.8689076 L22.109184,13.0668908 L4.94680372,13.0668908 C5.14871407,16.432605 7.16781763,19.6993277 11.5088903,19.6993277 C15.9509181,19.6993277 17.0614251,16.5315966 17.2633354,15.9376471 L17.2633354,15.8386555 L22.109184,15.8386555 L22.0082288,16.0366387 C21.4024977,18.2144538 20.1910356,20.0952941 18.4747976,21.3821849 C16.455694,22.8670588 14.1337249,23.56 11.3069799,23.56" id="Shape"></path>
                    <path d="M30.084643,22.8670588 L25.3397496,22.8670588 L25.3397496,0.692941176 L30.084643,0.692941176 L30.084643,4.35563025 C31.4980155,1.58386555 33.4161639,0.197983193 36.0409985,0.197983193 C36.8486399,0.197983193 37.454371,0.197983193 38.1610572,0.29697479 L38.3629676,0.29697479 L38.3629676,4.75159664 L38.1610572,4.75159664 C37.6562813,4.65260504 37.2524606,4.65260504 36.7476847,4.65260504 C32.911388,4.65260504 30.1855982,7.42436975 30.1855982,11.4830252 L30.1855982,22.8670588 L30.084643,22.8670588 Z" id="Path"></path>
                    <path d="M41.0887574,20.2932773 C41.0887574,21.8771429 39.7763401,23.1640336 38.1610572,23.1640336 C36.5457744,23.1640336 35.2333571,21.8771429 35.2333571,20.2932773 C35.2333571,18.7094118 36.5457744,17.422521 38.1610572,17.422521 C39.7763401,17.422521 41.0887574,18.7094118 41.0887574,20.2932773" id="Path"></path>
                </g>
            </g>
        </g>
    </g>
</svg>