<?xml version="1.0" encoding="utf-8"?>
<!-- Generator: Adobe Illustrator 19.0.0, SVG Export Plug-In . SVG Version: 6.00 Build 0)  -->
<svg version="1.1" id="layer" xmlns="http://www.w3.org/2000/svg" xmlns:xlink="http://www.w3.org/1999/xlink" x="0px" y="0px"
	 viewBox="-153 -46 652 652" style="enable-background:new -153 -46 652 652;" xml:space="preserve">
<style type="text/css">
	.st0{fill:#9E004C;}
	.st1{fill:#002852;}
</style>
<path class="st0" d="M355.5,245.4c0,0.1-0.1-0.4-5,0.2c-7.5,1-21.3,7.6-28.3,7.6h-1.5c-6.5,0-15.7-6.1-17.2-9.8h2
	c4.9,0,20.6-5.7,27-5.7C344.1,237.7,355.5,245.4,355.5,245.4"/>
<path class="st0" d="M389.6,260.1c-1.3,0.1-3.2,0.1-5.3,0c-9.1-0.4-25.1-12.2-26.9-14l0,0c0,0,8.5,1.5,15.1,2.4
	c6.6,0.9,15.6-1.2,21.8-4.2c13.9-6.5,30.2-3.2,31.4-1.3C413.2,243,405,259.4,389.6,260.1 M402.3,222.9c0.9-1.7,7-9.3,6.7-8.9
	c0,0.1,22.5,0,28,0v-6.2h-23.8c0,0,3.9-5.1,6-8.7c0.5,0,10.1,0,17.9,0l0-10.4c-54.7,0-79.7,0-79.7,0l0,82.1l79.7,0
	c0-23.2,0-21.4,0-47.9L402.3,222.9z"/>
<path class="st0" d="M437.4,199.5h31.1c-1.3,2-2.7,3.5-5.8,8.2h-25.2V199.5z"/>
<path class="st0" d="M437.4,214.3h20.3c-0.1,0.1-6.4,8.2-6.4,8.2h-14V214.3z"/>
<path class="st1" d="M134.3,268.4v3.5c-6.4,0.3-13,4.3-13,10.4v80.5l-63.2-74.5l-1.7-1.7v73.6H33.8v-3.5
	c10.2-3.4,13.9-3.9,13.9-13.9v-60.6c0-7.4-6.2-10-13-11.3v-3.5l22.5,0l54.5,62.4l0-61.5H134.3z M-25.1,267.5v3.5
	c5.5,0.3,12.1,1.5,12.1,12.1v76.2H1.8v-76.2c0-9.5,4.5-12.1,11.9-12.1v-3.5L-25.1,267.5z M303.1,324.7c-3.9-10.7-11.2-27.4-13-32
	c-2.2,4.5-13.7,30.7-13.9,32H303.1z M319.4,326.6c8.2,16.6,10.2,27.4,23.5,31.8v3.5h-22.5c0,0-12.4-27.2-13-28.6h-36.4L258.9,361
	h-17.3v-3.5c6.6-0.5,8.8-2.7,10.9-6.1c1.9-3,3.7-6.2,5.6-10.7c5.2-11.6,27.5-60.8,34.6-74.1C300.9,284,319.2,326.2,319.4,326.6
	 M-47.6,274.4c-13.6-8.1-24.8-9.5-28.3-9.8c-3.4-0.2-5.9-0.4-9.3-0.2c-26.9,1.5-46.3,23.4-46.3,50.7c0,33.1,23.1,45.2,42.3,46.1
	c4.7,0.2,6.7,0.3,11.4-0.3c5-0.6,16-2.1,26.8-13c-0.6-0.8-3.4-4.4-3.5-4.3c-2.3,1.7-11.9,10.4-26,10.4c-18,0-34.8-19-34.8-39.7
	c0-22.8,14.7-43.5,34.8-43.5c15.8,0,25.4,8.7,29.4,24.3h3.5V274.4 M230.6,276.6c-13.6-8.1-24.8-9.6-28.3-9.8
	c-3.4-0.2-5.9-0.4-9.3-0.2c-26.9,1.5-46.3,23.4-46.3,50.7c0,33.1,23.1,45.2,42.3,46.1c4.7,0.2,6.7,0.3,11.3-0.2
	c5-0.6,16-2.1,26.8-13c-0.6-0.8-3.4-4.4-3.4-4.3c-2.3,1.7-11.9,10.4-26,10.4c-18,0-34.8-19-34.8-39.7c0-22.8,14.7-43.5,34.8-43.5
	c15.8,0,25.4,8.8,29.4,24.3h3.5V276.6"/>
</svg>
