<?xml version="1.0" encoding="utf-8"?>
<!-- Generator: Adobe Illustrator 27.2.0, SVG Export Plug-In . SVG Version: 6.00 Build 0)  -->
<svg version="1.1" id="Livello_2_00000135656745648980690120000013961791055370186676_"
	 xmlns="http://www.w3.org/2000/svg" xmlns:xlink="http://www.w3.org/1999/xlink" x="0px" y="0px" viewBox="0 0 400.1 287.1"
	 style="enable-background:new 0 0 400.1 287.1;" xml:space="preserve">
<g>
	<g>
		<path d="M65,235.3h-4.2v7h-3.5v-19.6H65c4.5,0,6.9,2.5,6.9,6.3S69.5,235.3,65,235.3z M64.8,225.9h-4v6.3h4c2.4,0,3.5-1.3,3.5-3.2
			C68.3,227.2,67.2,225.9,64.8,225.9z"/>
		<path d="M76.2,242.4v-19.6h14v3.2H79.8v4.6h9.2v3.2h-9.2v5.4h10.4v3.2L76.2,242.4L76.2,242.4z"/>
		<path d="M106.5,242.4l-3.3-7.4h-4.3v7.4h-3.6v-19.6h8.3c4.7,0,6.8,2.9,6.8,6.1c0,2.6-1.4,4.7-3.6,5.5l3.6,8L106.5,242.4
			L106.5,242.4z M103.5,225.9h-4.7v5.9h4.8c2,0,3.2-1.1,3.2-2.9C106.8,227.2,105.6,225.9,103.5,225.9z"/>
		<path d="M118.7,226v5.3h8.9v3.2h-8.9v7.9h-3.6v-19.6h13.6v3.2L118.7,226L118.7,226z"/>
		<path d="M133.1,242.4v-19.6h14v3.2h-10.4v4.6h9.2v3.2h-9.2v5.4h10.4v3.2L133.1,242.4L133.1,242.4z"/>
		<path d="M164.4,240.4c-1.5,1.5-3.5,2.3-5.6,2.3s-4.1-0.7-5.6-2.2c-2.1-2.1-2.4-4.8-2.4-8s0.3-5.8,2.4-8c1.5-1.5,3.5-2.2,5.6-2.2
			s4.1,0.8,5.6,2.3c1.1,1.2,1.7,2.7,1.9,4.3h-3.6c-0.1-0.9-0.4-1.5-0.9-2.1c-0.6-0.8-1.7-1.2-3-1.2c-1.1,0-2.2,0.5-3,1.3
			c-1.4,1.4-1.4,3.9-1.4,5.6c0,1.8,0,4.2,1.4,5.6c0.8,0.8,1.9,1.3,3,1.3c1.2,0,2.3-0.4,3-1.2c0.5-0.6,0.8-1.3,0.9-2.2h3.6
			C166.1,237.7,165.5,239.2,164.4,240.4z"/>
		<path d="M177.7,226.1v16.3h-3.6v-16.3h-5.8v-3.3h15.2v3.3H177.7z"/>
		<path d="M211.9,242.4h-3.6l-4.1-13.5l-4.1,13.5h-3.6l-4-19.6h3.4l2.7,13.6l4-13.3h3l4,13.3l2.8-13.6h3.3L211.9,242.4z"/>
		<path d="M220.2,242.4v-19.6h14v3.2h-10.4v4.6h9.2v3.2h-9.2v5.4h10.4v3.2L220.2,242.4L220.2,242.4z"/>
		<path d="M239.2,242.4v-19.6h3.6V239h9.1v3.4L239.2,242.4L239.2,242.4z"/>
		<path d="M255.4,242.4v-19.6h3.6V239h9.1v3.4L255.4,242.4L255.4,242.4z"/>
		<path d="M284.3,242.4l-8.5-13.5v13.5h-3.5v-19.6h3.8l8.4,13.3v-13.3h3.5v19.6H284.3z"/>
		<path d="M294.2,242.4v-19.6h14v3.2h-10.4v4.6h9.2v3.2h-9.2v5.4h10.4v3.2L294.2,242.4L294.2,242.4z"/>
		<path d="M325.8,240.6c-1.5,1.5-3.8,2.1-6.2,2.1c-2.1,0-4.3-0.6-5.9-2c-1.2-1.1-2-2.7-2-4.6h3.6c0,1,0.4,1.8,1,2.4
			c0.8,0.8,2.2,1.1,3.3,1.1c1.4,0,2.7-0.3,3.4-1.1c0.4-0.5,0.8-0.9,0.8-1.9c0-1.4-1.1-2.1-2.3-2.3c-1.3-0.2-3-0.3-4.4-0.5
			c-2.7-0.4-5-2.2-5-5.5c0-1.6,0.7-2.9,1.7-3.9c1.3-1.3,3.5-2.1,5.8-2.1c2.1,0,4.1,0.7,5.5,1.9c1.2,1.1,2,2.6,2,4.2h-3.6
			c0-0.7-0.4-1.4-0.9-1.9c-0.6-0.7-1.9-1.1-3-1.1c-1.1,0-2.4,0.2-3.2,1.1c-0.4,0.4-0.7,0.9-0.7,1.7c0,1.3,0.8,1.9,2,2.1
			c1.2,0.2,3,0.3,4.3,0.5c2.9,0.4,5.4,2.3,5.4,5.7C327.4,238.4,326.8,239.6,325.8,240.6z"/>
		<path d="M344.9,240.6c-1.5,1.5-3.8,2.1-6.2,2.1c-2.1,0-4.3-0.6-5.9-2c-1.2-1.1-2-2.7-2-4.6h3.6c0,1,0.4,1.8,1,2.4
			c0.8,0.8,2.2,1.1,3.3,1.1c1.4,0,2.7-0.3,3.4-1.1c0.4-0.5,0.8-0.9,0.8-1.9c0-1.4-1.1-2.1-2.3-2.3c-1.3-0.2-3-0.3-4.4-0.5
			c-2.7-0.4-5-2.2-5-5.5c0-1.6,0.7-2.9,1.7-3.9c1.3-1.3,3.5-2.1,5.8-2.1c2.1,0,4.1,0.7,5.5,1.9c1.2,1.1,2,2.6,2,4.2h-3.6
			c0-0.7-0.4-1.4-0.9-1.9c-0.6-0.7-1.9-1.1-3-1.1c-1.1,0-2.4,0.2-3.2,1.1c-0.4,0.4-0.7,0.9-0.7,1.7c0,1.3,0.8,1.9,2,2.1
			c1.2,0.2,3,0.3,4.3,0.5c2.9,0.4,5.4,2.3,5.4,5.7C346.6,238.4,345.9,239.6,344.9,240.6z"/>
	</g>
	<g>
		<g>
			<polygon points="263.1,105.8 290,105.8 295.5,83 263.1,83 			"/>
		</g>
		<g>
			<path d="M260.5,35.3c-21.8,0-35.7,14.4-35.7,36.5V83h-39.7v22.8h39.7v75.5h26.6v-75.5V83V72.2v-0.6h0.1c0.5-10.4,8.2-13,13.9-13
				c4.4,0,7,0.6,8.4,1V37.3C271.5,36.3,266.1,35.3,260.5,35.3z"/>
		</g>
		<g>
			<path d="M182.4,35.3c-21.8,0-35.7,14.4-35.7,36.5V83h-29.7l-4.4,22.8h34.1v75.5h26.6v-75.5V83V72.2v-0.6h0.1
				c0.5-10.4,8.2-13,13.9-13c4.4,0,7,0.6,8.4,1V37.3C193.4,36.3,188,35.3,182.4,35.3z"/>
		</g>
		<path d="M78.1,149.7c-3.6,7.1-10.2,11.8-21,11.8c-13.2,0-24.2-9.4-24.8-22.4h70.3c0-0.4,0.4-4.4,0.4-8.2
			c0-31.6-18.2-50.9-48.5-50.9c-25.2,0-48.3,20.4-48.3,51.7c0,33.1,23.8,52.5,50.7,52.5c22.3,0,37.2-12.1,43.3-27.2L78.1,149.7z
			 M54.9,101.6c15.2,0,21.6,9.6,22,19.4H33C33.6,112,41.2,101.6,54.9,101.6z"/>
		<path d="M369.4,148.7c-3.5,7.6-10.1,12.8-21.4,12.8c-13.2,0-24.2-9.4-24.8-22.4h70.3c0-0.4,0.4-4.4,0.4-8.2
			c0-31.6-18.2-50.9-48.5-50.9c-25.2,0-48.3,20.4-48.3,51.7c0,33.1,23.8,52.5,50.7,52.5c22.8,0,37.9-12.6,43.7-28.2L369.4,148.7z
			 M345.8,101.6c15.2,0,21.6,9.6,22,19.4h-43.9C324.4,112,332,101.6,345.8,101.6z"/>
	</g>
</g>
</svg>
