<svg xmlns="http://www.w3.org/2000/svg" viewBox="0 0 381.4 76.54"><title>LAUFEN_klassisch_sw [Konvertiert]</title><path d="M119.5,251.32h8.81v58.76h35v7.42H119.5Z" transform="translate(-119.5 -249.55)"/><path d="M308,293.51c0,16.68-9.81,25.49-26.31,25.49-17.05,0-27.41-7.88-27.41-25.49V251.24h8.8v42.27c0,11.68,6.93,18.07,18.61,18.07,11.13,0,17.5-6.39,17.5-18.07V251.24H308Z" transform="translate(-119.5 -249.55)"/><path d="M327.3,251.32h43.47v7.41H336.1v21h30.41v7.42H336.1V317.5h-8.8Z" transform="translate(-119.5 -249.55)"/><path d="M386.23,251.32h45.7v7.41H395v21h34.39v7.42H395v22.89H432.2v7.42h-46Z" transform="translate(-119.5 -249.55)"/><path d="M448.16,251.32h9.36L492.38,305h.18V251.32h8.34V317.5h-9.64l-34.57-53.11h-.19V317.5h-8.34Z" transform="translate(-119.5 -249.55)"/><polygon points="87.68 49.58 87.68 76.54 96.08 67.95 96.08 40.99 87.68 49.58"/><polygon points="81.42 60.25 65.98 60.25 91.85 15.44 117.72 60.25 102.45 60.25 102.45 67.95 131.07 67.95 91.84 0 52.6 67.96 81.42 67.96 81.42 60.25"/></svg>